<svg width="23" height="23" viewBox="0 0 23 23" fill="none" xmlns="http://www.w3.org/2000/svg">
<g clip-path="url(#clip0_576_3)">
<path d="M17.1423 0.00499997L14.1783 0.000244141C10.8483 0.000244141 8.69627 2.20814 8.69627 5.62544V8.21903H5.71607C5.45854 8.21903 5.25 8.42781 5.25 8.68534V12.4432C5.25 12.7007 5.45878 12.9092 5.71607 12.9092H8.69627V22.3914C8.69627 22.6489 8.90482 22.8575 9.16234 22.8575H13.0507C13.3082 22.8575 13.5167 22.6487 13.5167 22.3914V12.9092H17.0013C17.2588 12.9092 17.4674 12.7007 17.4674 12.4432L17.4688 8.68534C17.4688 8.56168 17.4196 8.44326 17.3323 8.35576C17.245 8.26825 17.1261 8.21903 17.0025 8.21903H13.5167V6.02041C13.5167 4.96366 13.7685 4.42721 15.1451 4.42721L17.1418 4.42649C17.3991 4.42649 17.6077 4.21771 17.6077 3.96042V0.471071C17.6077 0.214019 17.3993 0.00547555 17.1423 0.00499997Z" fill="black"/>
</g>
<defs>
<clipPath id="clip0_576_3">
<rect width="22.8572" height="22.8572" fill="white"/>
</clipPath>
</defs>
</svg>
