<svg width="276" height="355" viewBox="0 0 276 355" fill="none" xmlns="http://www.w3.org/2000/svg">
<path fill-rule="evenodd" clip-rule="evenodd" d="M235.39 41.297C216.137 22.0273 191.601 8.90193 164.887 3.58207C138.172 -1.7378 110.48 0.986955 85.3145 11.4115C60.1491 21.836 38.6418 39.4917 23.5145 62.1442C8.38718 84.7966 0.319867 111.428 0.333513 138.667C0.333513 192.003 37.7002 247.974 69.1669 285.557C90.1353 310.583 113.16 333.812 138 355C162.84 333.812 185.865 310.583 206.834 285.557C238.3 247.974 275.667 192.003 275.667 138.667C275.724 120.58 272.194 102.661 265.281 85.9477C258.367 69.2342 248.207 54.0579 235.39 41.297ZM206.067 284.915C221.773 266.157 238.934 242.829 252.164 217.555C265.399 192.274 274.667 165.112 274.667 138.667V138.664C274.724 120.709 271.22 102.921 264.357 86.3299C257.494 69.7387 247.408 54.6733 234.684 42.0057L234.682 42.0038C215.57 22.874 191.212 9.84403 164.691 4.56281C138.171 -0.718409 110.68 1.98655 85.6972 12.3354C60.7146 22.6842 39.3635 40.2116 24.3461 62.6995C9.32867 85.1874 1.31997 111.625 1.33351 138.666L1.33351 138.667C1.33351 165.112 10.601 192.274 23.8361 217.555C37.0668 242.829 54.2279 266.157 69.9334 284.915C90.6833 309.68 113.45 332.682 138 353.685C162.55 332.682 185.317 309.68 206.067 284.915ZM38.6669 138.667V138.665C38.6984 112.331 49.1738 87.0835 67.7954 68.4619C86.417 49.8403 111.664 39.3649 137.999 39.3333L138 40.3333C111.93 40.3646 86.9368 50.7347 68.5025 69.169C50.0682 87.6033 39.6981 112.597 39.6669 138.667C39.6669 161.598 50.0312 201.305 99.3552 260.325C111.512 274.84 124.411 288.717 138 301.9C151.59 288.732 164.495 274.875 176.665 260.384C225.969 201.285 236.334 161.578 236.334 138.667C236.302 112.597 225.932 87.6033 207.498 69.169C189.064 50.7347 164.07 40.3646 138 40.3333L138.001 39.3333C164.336 39.3649 189.583 49.8403 208.205 68.4619C226.827 87.0835 237.302 112.331 237.334 138.665V138.667C237.334 161.892 226.826 201.819 177.433 261.024L177.431 261.027C165.239 275.544 152.311 289.426 138.696 302.618L138 303.293L137.304 302.618C123.69 289.411 110.767 275.508 98.5885 260.967L98.5879 260.966C49.1742 201.839 38.6669 161.912 38.6669 138.667ZM96.988 179.679C107.865 190.556 122.618 196.667 138 196.667C153.383 196.667 168.135 190.556 179.012 179.679C189.89 168.802 196 154.049 196 138.667C196 123.284 189.89 108.532 179.012 97.6545C168.135 86.7774 153.383 80.6667 138 80.6667C122.618 80.6667 107.865 86.7774 96.988 97.6545C86.1109 108.532 80.0002 123.284 80.0002 138.667C80.0002 154.049 86.1109 168.802 96.988 179.679ZM96.2809 180.386C107.346 191.451 122.352 197.667 138 197.667C153.648 197.667 168.655 191.451 179.719 180.386C190.784 169.321 197 154.314 197 138.667C197 123.019 190.784 108.012 179.719 96.9474C168.655 85.8827 153.648 79.6667 138 79.6667C122.352 79.6667 107.346 85.8827 96.2809 96.9474C85.2162 108.012 79.0002 123.019 79.0002 138.667C79.0002 154.314 85.2162 169.321 96.2809 180.386Z" fill="black"/>
</svg>
