<svg width="26" height="26" viewBox="0 0 26 26" fill="none" xmlns="http://www.w3.org/2000/svg">
<g clip-path="url(#clip0_226_3255)">
<path d="M18.3223 0.000244141H6.98339C3.13275 0.000244141 0 3.13314 0 6.98378V18.3227C0 22.1735 3.13275 25.3062 6.98339 25.3062H18.3223C22.1732 25.3062 25.306 22.1733 25.306 18.3227V6.98378C25.3061 3.13314 22.1732 0.000244141 18.3223 0.000244141ZM23.0609 18.3227C23.0609 20.9354 20.9352 23.061 18.3224 23.061H6.98339C4.37079 23.0611 2.24527 20.9354 2.24527 18.3227V6.98378C2.24527 4.37118 4.37079 2.24551 6.98339 2.24551H18.3223C20.935 2.24551 23.0607 4.37118 23.0607 6.98378V18.3227H23.0609Z" fill="#5E0175"/>
<path d="M12.6535 6.13281C9.05795 6.13281 6.13281 9.05795 6.13281 12.6535C6.13281 16.2489 9.05795 19.1739 12.6535 19.1739C16.2491 19.1739 19.1742 16.2489 19.1742 12.6535C19.1742 9.05795 16.2491 6.13281 12.6535 6.13281ZM12.6535 16.9285C10.2961 16.9285 8.37808 15.0108 8.37808 12.6534C8.37808 10.2958 10.296 8.37793 12.6535 8.37793C15.0111 8.37793 16.929 10.2958 16.929 12.6534C16.929 15.0108 15.0109 16.9285 12.6535 16.9285Z" fill="#5E0175"/>
<path d="M19.4473 4.22876C19.0147 4.22876 18.5898 4.40389 18.2843 4.71074C17.9773 5.0161 17.8008 5.4412 17.8008 5.87529C17.8008 6.30803 17.9774 6.73298 18.2843 7.03984C18.5896 7.34519 19.0147 7.52182 19.4473 7.52182C19.8814 7.52182 20.305 7.34519 20.6118 7.03984C20.9187 6.73298 21.0938 6.30788 21.0938 5.87529C21.0938 5.4412 20.9187 5.0161 20.6118 4.71074C20.3065 4.40389 19.8814 4.22876 19.4473 4.22876Z" fill="#5E0175"/>
</g>
<defs>
<clipPath id="clip0_226_3255">
<rect width="25.3061" height="25.3061" fill="white"/>
</clipPath>
</defs>
</svg>
