<svg width="24" height="24" viewBox="0 0 24 24" fill="none" xmlns="http://www.w3.org/2000/svg">
<g clip-path="url(#clip0_576_4)">
<path d="M17.1215 0.428711H6.87986C3.40185 0.428711 0.572266 3.25843 0.572266 6.73644V16.9781C0.572266 20.4562 3.40185 23.2858 6.87986 23.2858H17.1215C20.5998 23.2858 23.4293 20.4561 23.4293 16.9781V6.73644C23.4295 3.25843 20.5998 0.428711 17.1215 0.428711ZM21.4015 16.9781C21.4015 19.338 19.4815 21.2578 17.1216 21.2578H6.87986C4.52009 21.2579 2.60026 19.338 2.60026 16.9781V6.73644C2.60026 4.37667 4.52009 2.4567 6.87986 2.4567H17.1215C19.4814 2.4567 21.4014 4.37667 21.4014 6.73644V16.9781H21.4015Z" fill="black"/>
<path d="M12.001 5.96777C8.7534 5.96777 6.11133 8.60984 6.11133 11.8575C6.11133 15.105 8.7534 17.7469 12.001 17.7469C15.2486 17.7469 17.8907 15.105 17.8907 11.8575C17.8907 8.60984 15.2486 5.96777 12.001 5.96777ZM12.001 15.7188C9.87177 15.7188 8.13932 13.9866 8.13932 11.8573C8.13932 9.72794 9.87163 7.99563 12.001 7.99563C14.1304 7.99563 15.8627 9.72794 15.8627 11.8573C15.8627 13.9866 14.1303 15.7188 12.001 15.7188Z" fill="black"/>
<path d="M18.1376 4.24805C17.7469 4.24805 17.363 4.40623 17.0871 4.68339C16.8098 4.9592 16.6504 5.34316 16.6504 5.73524C16.6504 6.1261 16.8099 6.50993 17.0871 6.78709C17.3629 7.0629 17.7469 7.22243 18.1376 7.22243C18.5297 7.22243 18.9123 7.0629 19.1894 6.78709C19.4666 6.50993 19.6248 6.12597 19.6248 5.73524C19.6248 5.34316 19.4666 4.9592 19.1894 4.68339C18.9136 4.40623 18.5297 4.24805 18.1376 4.24805Z" fill="black"/>
</g>
<defs>
<clipPath id="clip0_576_4">
<rect width="22.8572" height="22.8572" fill="white" transform="translate(0.572266 0.428467)"/>
</clipPath>
</defs>
</svg>
