<svg width="30" height="20" viewBox="0 0 30 20" fill="none" xmlns="http://www.w3.org/2000/svg">
<path d="M28.8281 8.34375H1.17188C0.524648 8.34375 0 8.8684 0 9.51562C0 10.1629 0.524648 10.6875 1.17188 10.6875H28.8281C29.4754 10.6875 30 10.1629 30 9.51562C30 8.8684 29.4754 8.34375 28.8281 8.34375Z" fill="white"/>
<path d="M28.8281 0H1.17188C0.524648 0 0 0.524648 0 1.17188C0 1.8191 0.524648 2.34375 1.17188 2.34375H28.8281C29.4754 2.34375 30 1.8191 30 1.17188C30 0.524648 29.4754 0 28.8281 0Z" fill="white"/>
<path d="M28.8281 16.6875H1.17188C0.524648 16.6875 0 17.2121 0 17.8594C0 18.5066 0.524648 19.0312 1.17188 19.0312H28.8281C29.4754 19.0312 30 18.5066 30 17.8594C30 17.2121 29.4754 16.6875 28.8281 16.6875Z" fill="white"/>
</svg>
