<svg width="18" height="18" viewBox="0 0 18 18" fill="none" xmlns="http://www.w3.org/2000/svg">
<path d="M17.1421 10.2944C16.8629 10.2944 16.5833 10.2944 16.2827 10.2944C16.2827 9.71633 16.2827 9.15285 16.2827 8.57999C15.9901 8.57999 15.7187 8.57999 15.4261 8.57999C15.4261 9.42781 15.4261 10.2777 15.4261 11.149C15.1287 11.149 14.8527 11.149 14.5673 11.149C14.5673 11.7287 14.5673 12.2869 14.5673 12.8666C15.1297 12.8666 15.6927 12.8666 16.2676 12.8666C16.2676 13.4379 16.2676 13.9878 16.2676 14.5466C15.989 14.5466 15.7177 14.5466 15.4245 14.5466C15.4245 14.2701 15.4245 13.9936 15.4245 13.7066C15.1318 13.7066 14.8605 13.7066 14.5673 13.7066C14.5673 13.9774 14.5673 14.2539 14.5673 14.5591C14.262 14.5591 13.9782 14.5591 13.6939 14.5591C13.6939 14.28 13.6939 14.0003 13.6939 13.6998C13.422 13.6998 13.1586 13.6998 12.8852 13.6998C12.8852 13.4207 12.8852 13.1624 12.8852 12.8822C13.1445 12.8822 13.408 12.8822 13.6996 12.8822C13.6996 12.0036 13.6996 11.1459 13.6996 10.2882L13.6939 10.2934C13.9782 10.2934 14.262 10.2934 14.5422 10.2934C14.5422 9.70172 14.5422 9.13877 14.5422 8.57946C13.6949 8.57946 12.8633 8.57946 12.0097 8.57946C12.0097 8.8659 12.0097 9.1419 12.0097 9.42729C11.7092 9.42729 11.4295 9.42729 11.1504 9.42729L11.1561 9.43251C11.1561 8.57946 11.1561 7.72642 11.1561 6.86033C11.441 6.86033 11.717 6.86033 12.0076 6.86033C12.0076 7.13581 12.0076 7.40712 12.0076 7.69355C12.5716 7.69355 13.1215 7.69355 13.6928 7.69355C13.6928 7.41964 13.6928 7.14364 13.6928 6.85772C14.5594 6.85772 15.4047 6.85772 16.2713 6.85772C16.2713 7.13164 16.2713 7.40816 16.2713 7.69616C16.5687 7.69616 16.8447 7.69616 17.1353 7.69616C17.1353 7.41859 17.1353 7.14729 17.1353 6.84729C17.4332 6.84729 17.717 6.84729 18.0008 6.84729C18.0008 7.70816 18.0008 8.56903 18.0008 9.4299C17.7175 9.4299 17.4337 9.4299 17.1426 9.4299C17.1421 9.73616 17.1421 10.0153 17.1421 10.2944Z" fill="black"/>
<path d="M5.98696 0C5.98696 1.98678 5.98696 3.97409 5.98696 5.98696C3.98348 5.98696 1.99148 5.98696 0 5.98696C0 3.9913 0 1.99565 0 0C1.99565 0 3.9913 0 5.98696 0ZM0.874435 0.869739C0.874435 2.29461 0.874435 3.70487 0.874435 5.11044C2.29826 5.11044 3.70852 5.11044 5.11565 5.11044C5.11565 3.68974 5.11565 2.28417 5.11565 0.869739C3.70017 0.869739 2.29461 0.869739 0.874435 0.869739Z" fill="black"/>
<path d="M17.9987 5.98696C16.0119 5.98696 14.0246 5.98696 12.0117 5.98696C12.0117 3.98348 12.0117 1.99148 12.0117 0C14.0074 0 16.003 0 17.9987 0C17.9987 1.99565 17.9987 3.9913 17.9987 5.98696ZM17.1242 5.11722C17.1242 3.69183 17.1242 2.28157 17.1242 0.876522C15.7004 0.876522 14.2902 0.876522 12.883 0.876522C12.883 2.29774 12.883 3.7033 12.883 5.11722C14.2985 5.11722 15.7041 5.11722 17.1242 5.11722Z" fill="black"/>
<path d="M0 12.0131C1.98678 12.0131 3.97409 12.0131 5.98696 12.0131C5.98696 14.0165 5.98696 16.0085 5.98696 18C3.9913 18 1.99565 18 0 18C0 16.0044 0 14.0087 0 12.0131ZM0.869739 17.1256C2.29513 17.1256 3.70487 17.1256 5.11044 17.1256C5.11044 15.7018 5.11044 14.2915 5.11044 12.8844C3.68922 12.8844 2.28365 12.8844 0.869739 12.8844C0.869739 14.2998 0.869739 15.7054 0.869739 17.1256Z" fill="black"/>
<path d="M13.6986 14.5539C13.6986 15.12 13.6986 15.6856 13.6986 16.2731C13.9824 16.2731 14.2589 16.2731 14.549 16.2731C14.549 16.5652 14.549 16.8365 14.549 17.1287C15.1256 17.1287 15.688 17.1287 16.2786 17.1287C16.2786 17.4329 16.2786 17.7167 16.2786 18.0005C15.4177 18.0005 14.5569 18.0005 13.696 18.0005C13.696 17.7178 13.696 17.435 13.696 17.1532C13.409 17.1532 13.1471 17.1532 12.8742 17.1532C12.8742 17.4444 12.8742 17.7225 12.8742 18.0005C12.5873 18.0005 12.3003 18.0005 12.0134 18.0005C12.0134 17.7214 12.0134 17.4423 12.0134 17.1423C11.7238 17.1423 11.4473 17.1423 11.1572 17.1423C11.1572 16.8501 11.1572 16.5788 11.1572 16.2861C10.5807 16.2861 10.0177 16.2861 9.43338 16.2861C9.43338 15.9892 9.43338 15.7132 9.43338 15.4232C9.1412 15.4232 8.8699 15.4232 8.58398 15.4232C8.58398 14.8461 8.58398 14.2837 8.58398 13.7087C9.1459 13.7087 9.70833 13.7087 10.2854 13.7087C10.2854 13.9852 10.2854 14.2565 10.2854 14.5425C10.5755 14.5425 10.8509 14.5425 11.1483 14.5425C11.1483 13.9946 11.1483 13.4447 11.1483 12.8849C11.4405 12.8849 11.7118 12.8849 12.004 12.8849C12.004 13.4322 12.004 13.9816 12.004 14.5545C12.5831 14.5539 13.1409 14.5539 13.6986 14.5539ZM12.8581 16.2741C12.8581 15.9929 12.8581 15.7127 12.8581 15.4305C12.5758 15.4305 12.3003 15.4305 12.0285 15.4305C12.0285 15.7195 12.0285 15.995 12.0285 16.2741C12.3092 16.2741 12.5753 16.2741 12.8581 16.2741Z" fill="black"/>
<path d="M0 6.84778C1.13896 6.84778 2.27739 6.84778 3.42991 6.84778C3.42991 7.13369 3.42991 7.40969 3.42991 7.70604C2.86643 7.70604 2.304 7.70604 1.73165 7.70604C1.73165 7.99769 1.73165 8.26847 1.73165 8.56065C2.00504 8.56065 2.28104 8.56065 2.58522 8.56065C2.58522 8.86534 2.58522 9.14917 2.58522 9.433C2.00974 9.43091 1.43374 9.42934 0.858261 9.42726L0.863478 9.433C0.863478 9.14917 0.863478 8.86587 0.863478 8.56952C0.557217 8.56952 0.278609 8.56952 0 8.56952C0 7.9956 0 7.42169 0 6.84778Z" fill="black"/>
<path d="M6.84766 18C6.84766 16.8611 6.84766 15.7216 6.84766 14.5696C7.13513 14.5696 7.41113 14.5696 7.70122 14.5696C7.70122 15.131 7.70122 15.6887 7.70122 16.2678C7.99026 16.2678 8.26679 16.2678 8.5694 16.2678C8.5694 16.859 8.5694 17.4298 8.5694 18C7.99548 18 7.42157 18 6.84766 18Z" fill="black"/>
<path d="M0.862957 10.2881C0.575478 10.2892 0.287478 10.2902 0 10.2912C0 10.0043 0 9.71733 0 9.43038C0.288 9.43142 0.575478 9.43194 0.863478 9.43299L0.858261 9.42725C0.857739 9.71577 0.857739 10.0048 0.857217 10.2933L0.862957 10.2881Z" fill="black"/>
<path d="M17.1367 10.2887C17.4247 10.2897 17.7122 10.2903 18.0002 10.2913C18.0002 10.5783 18.0002 10.8652 18.0002 11.1522C17.7216 11.1522 17.443 11.1522 17.1367 11.1522C17.1367 10.8558 17.1367 10.572 17.1367 10.2887Z" fill="black"/>
<path d="M9.42773 0.863478C9.42878 0.575478 9.4293 0.288 9.43034 0C9.7173 0 10.0043 0 10.2912 0C10.2912 0.278609 10.2912 0.557217 10.2912 0.863478C9.99487 0.863478 9.71104 0.863478 9.42773 0.863478Z" fill="black"/>
<path d="M17.9996 14.5565C17.7216 14.5565 17.4435 14.5565 17.1523 14.5565C17.1523 14.2706 17.1523 13.9957 17.1523 13.6957C17.4341 13.6957 17.7169 13.6957 17.9996 13.6957C17.9996 13.9826 17.9996 14.2696 17.9996 14.5565Z" fill="black"/>
<path d="M7.70853 0C7.70853 0.278087 7.70853 0.556174 7.70853 0.847304C7.42261 0.847304 7.14766 0.847304 6.84766 0.847304C6.84766 0.565565 6.84766 0.282783 6.84766 0C7.13461 0 7.42157 0 7.70853 0Z" fill="black"/>
<path d="M17.9996 17.1392C17.7216 17.1392 17.4435 17.1392 17.1523 17.1392C17.1523 16.8533 17.1523 16.5783 17.1523 16.2783C17.4341 16.2783 17.7169 16.2783 17.9996 16.2783C17.9996 16.5653 17.9996 16.8522 17.9996 17.1392Z" fill="black"/>
<path d="M2.58008 9.42789C3.15556 9.42997 3.73156 9.43154 4.30703 9.43362L4.30182 9.42789C4.30182 9.71171 4.30182 9.99554 4.30182 10.2783C5.1653 10.2783 6.00112 10.2783 6.85051 10.2783C6.85051 9.98615 6.85051 9.70702 6.85051 9.42789L6.8453 9.4331C7.12912 9.4331 7.41347 9.4331 7.71138 9.4331C7.71138 9.12528 7.71138 8.84615 7.71138 8.56702L7.70617 8.57276C8.27173 8.57276 8.83782 8.57276 9.41695 8.57276C9.41695 8.85606 9.41695 9.13206 9.41695 9.42893C9.13938 9.42893 8.86338 9.42893 8.57382 9.42893C8.57382 9.7211 8.57382 9.99241 8.57382 10.2846C8.28425 10.2846 8.00825 10.2846 7.72077 10.2846C7.72077 10.5814 7.72077 10.8569 7.72077 11.1423C8.28477 11.1423 8.84251 11.1423 9.42164 11.1423C9.42164 10.8689 9.42164 10.5929 9.42164 10.2945C9.72634 10.2945 10.0102 10.2945 10.294 10.2945L10.2888 10.2888C10.2888 10.5726 10.2888 10.8569 10.2888 11.1548C10.8836 11.1548 11.4496 11.1548 12.0157 11.1548L12.01 11.1496C12.01 11.4288 12.01 11.7079 12.01 12.0079C11.1517 12.0079 10.3023 12.0079 9.43834 12.0079C9.43834 12.2995 9.43834 12.5708 9.43834 12.8578C9.14877 12.8578 8.87277 12.8578 8.57538 12.8578C8.57538 12.5875 8.57538 12.311 8.57538 12.0141C7.99156 12.0141 7.42912 12.0141 6.85208 12.0141C6.85208 11.722 6.85208 11.4507 6.85208 11.1595C5.42773 11.1595 4.01799 11.1595 2.58008 11.1595C2.58008 10.5689 2.58008 9.99867 2.58008 9.42789Z" fill="black"/>
<path d="M0.857422 10.2933C1.13603 10.2933 1.41464 10.2933 1.70733 10.2933C1.70733 10.575 1.70733 10.8505 1.70733 11.139C1.43447 11.139 1.15951 11.139 0.862639 11.139C0.862639 10.8547 0.862639 10.5714 0.862639 10.2881C0.863161 10.2881 0.857422 10.2933 0.857422 10.2933Z" fill="black"/>
<path d="M12.8706 10.2887C12.8706 10.5678 12.8706 10.847 12.8706 11.1496C12.5779 11.1496 12.2936 11.1496 12.0098 11.1496L12.0155 11.1548C12.0155 10.871 12.0155 10.5866 12.0155 10.2939C12.3181 10.2939 12.5972 10.2939 12.8764 10.2939L12.8706 10.2887Z" fill="black"/>
<path d="M13.6991 10.2887C13.4231 10.2887 13.1471 10.2887 12.8711 10.2887L12.8768 10.2939C12.8768 10.0106 12.8768 9.72675 12.8768 9.44397C13.1612 9.44397 13.4231 9.44397 13.6934 9.44397C13.6934 9.73614 13.6934 10.0153 13.6934 10.2939L13.6991 10.2887Z" fill="black"/>
<path d="M8.56546 2.58462C8.56546 2.01854 8.56546 1.45245 8.56546 0.857666C8.86442 0.857666 9.14825 0.857666 9.43259 0.857666C9.43259 1.1368 9.43259 1.4154 9.43259 1.71488C9.7159 1.71488 9.9919 1.71488 10.2882 1.71488C10.2882 2.01071 10.2882 2.28671 10.2882 2.57575C10.5794 2.57575 10.8507 2.57575 11.1366 2.57575C11.1366 3.15123 11.1366 3.71314 11.1366 4.29593C10.8674 4.29593 10.5914 4.29593 10.2877 4.29593C10.2877 4.58706 10.2877 4.85732 10.2877 5.1281L10.2935 5.12288C10.0049 5.12288 9.7159 5.12288 9.42738 5.12288L9.43311 5.1281C9.43311 4.86201 9.43311 4.59593 9.43311 4.30949C8.56911 4.30949 7.72024 4.30949 6.85938 4.30949C6.85938 3.44027 6.85938 2.59088 6.85938 1.73158C7.1359 1.73158 7.40668 1.73158 7.69938 1.73158C7.69938 2.00393 7.69938 2.27993 7.69938 2.57888C8.00355 2.57888 8.2879 2.57888 8.57172 2.57888C8.57172 2.86219 8.57172 3.14549 8.57172 3.42984C8.86859 3.42984 9.14355 3.42984 9.41642 3.42984C9.41642 3.14132 9.41642 2.86636 9.41642 2.5841C9.12268 2.58462 8.84407 2.58462 8.56546 2.58462Z" fill="black"/>
<path d="M7.70703 6.85049C7.70912 6.56197 7.71121 6.27345 7.71329 5.9844L7.70755 5.99014C7.98616 5.99014 8.26477 5.99014 8.56373 5.99014C8.56373 5.7011 8.56373 5.42562 8.56373 5.12875C8.86738 5.12875 9.15068 5.12875 9.43399 5.12875L9.42825 5.12354C9.42825 5.40736 9.42825 5.69171 9.42825 5.98962C9.73608 5.98962 10.0152 5.98962 10.2943 5.98962L10.2886 5.9844C10.2886 6.54945 10.2886 7.11449 10.2886 7.69414C9.72147 7.69414 9.15955 7.69414 8.57729 7.69414C8.57729 7.42388 8.57729 7.14788 8.57729 6.85049C8.27416 6.85049 7.99034 6.85049 7.70703 6.85049Z" fill="black"/>
<path d="M6.85144 8.57217C6.85144 8.00608 6.85144 7.44 6.85144 6.84521C7.14414 6.84521 7.42796 6.84521 7.71179 6.84521C7.71022 7.42121 7.70814 7.99669 7.70657 8.57269L7.71179 8.56695C7.42327 8.56695 7.13422 8.56695 6.8457 8.56695L6.85144 8.57217Z" fill="black"/>
<path d="M10.2943 10.2945C10.2943 10.0153 10.2943 9.73568 10.2943 9.43307C10.5875 9.43307 10.8713 9.43307 11.1557 9.43307L11.1499 9.42786C11.1499 9.71168 11.1499 9.99603 11.1499 10.2887C10.8473 10.2887 10.5682 10.2887 10.2891 10.2887L10.2943 10.2945Z" fill="black"/>
<path d="M10.2891 5.12875C10.5677 5.12875 10.8468 5.12875 11.139 5.12875C11.139 5.41153 11.139 5.68701 11.139 5.9844C10.8562 5.9844 10.5724 5.9844 10.2891 5.9844L10.2948 5.98962C10.2948 5.7011 10.2948 5.41206 10.2948 5.12354L10.2891 5.12875Z" fill="black"/>
<path d="M5.122 7.70654C5.122 7.98567 5.122 8.2648 5.122 8.57211C5.70843 8.57211 6.27922 8.57211 6.85 8.57211L6.84426 8.56689C6.84426 8.85541 6.84426 9.14446 6.84426 9.43298L6.84948 9.42776C6.00009 9.42776 5.15017 9.42776 4.30078 9.42776L4.306 9.4335C4.306 8.86741 4.306 8.30133 4.306 7.71228C4.58565 7.71228 4.85643 7.71228 5.12722 7.71228L5.122 7.70654Z" fill="black"/>
<path d="M5.12826 7.71234C5.12826 7.43373 5.12826 7.15512 5.12826 6.86243C5.41 6.86243 5.68548 6.86243 5.974 6.86243C5.974 7.1353 5.974 7.41025 5.974 7.70712C5.68966 7.70712 5.40635 7.70712 5.12305 7.70712C5.12305 7.7066 5.12826 7.71234 5.12826 7.71234Z" fill="black"/>
<path d="M7.71319 5.9849C7.43459 5.9849 7.15598 5.9849 6.86328 5.9849C6.86328 5.70316 6.86328 5.42768 6.86328 5.13916C7.13615 5.13916 7.41111 5.13916 7.70798 5.13916C7.70798 5.42351 7.70798 5.70681 7.70798 5.99011C7.70745 5.99011 7.71319 5.9849 7.71319 5.9849Z" fill="black"/>
<path d="M16.265 16.2699C15.9822 16.2699 15.7114 16.2699 15.4297 16.2699C15.4297 15.9913 15.4297 15.7205 15.4297 15.4336C15.6994 15.4336 15.9749 15.4336 16.265 15.4336C16.265 15.7018 16.265 15.9772 16.265 16.2699Z" fill="black"/>
<path d="M1.73438 1.72534C2.59264 1.72534 3.43264 1.72534 4.28881 1.72534C4.28881 2.57734 4.28881 3.42673 4.28881 4.29021C3.44568 4.29021 2.59629 4.29021 1.73438 4.29021C1.73438 3.44186 1.73438 2.59247 1.73438 1.72534Z" fill="black"/>
<path d="M16.2651 4.29539C15.4069 4.29539 14.5622 4.29539 13.707 4.29539C13.707 3.44235 13.707 2.59765 13.707 1.7373C14.5528 1.7373 15.4022 1.7373 16.2651 1.7373C16.2651 2.58096 16.2651 3.43035 16.2651 4.29539Z" fill="black"/>
<path d="M1.73438 13.704C2.59264 13.704 3.43733 13.704 4.29246 13.704C4.29246 14.557 4.29246 15.4017 4.29246 16.2621C3.44724 16.2621 2.59785 16.2621 1.73438 16.2621C1.73437 15.4189 1.73438 14.5695 1.73438 13.704Z" fill="black"/>
</svg>
