<svg width="26" height="26" viewBox="0 0 26 26" fill="none" xmlns="http://www.w3.org/2000/svg">
<g clip-path="url(#clip0_226_3260)">
<path d="M0.446981 12.2011L6.27802 14.3774L8.53499 21.6358C8.6794 22.1006 9.24786 22.2725 9.62517 21.964L12.8755 19.3143C13.2162 19.0367 13.7015 19.0228 14.0575 19.2813L19.92 23.5375C20.3236 23.8309 20.8954 23.6097 20.9966 23.122L25.2912 2.46454C25.4017 1.93176 24.8782 1.4873 24.3709 1.68351L0.440148 10.9153C-0.150412 11.143 -0.145267 11.9791 0.446981 12.2011ZM8.17125 13.2189L19.5673 6.20006C19.7721 6.07429 19.9828 6.35122 19.8069 6.51436L10.4019 15.2568C10.0713 15.5645 9.85807 15.9763 9.79768 16.4233L9.4773 18.7975C9.43487 19.1145 8.98957 19.146 8.90209 18.8392L7.66994 14.5097C7.52881 14.0159 7.73447 13.4885 8.17125 13.2189Z" fill="#159DD7"/>
</g>
<defs>
<clipPath id="clip0_226_3260">
<rect width="25.3061" height="25.3061" fill="white"/>
</clipPath>
</defs>
</svg>
