<svg width="23" height="24" viewBox="0 0 23 24" fill="none" xmlns="http://www.w3.org/2000/svg">
<g clip-path="url(#clip0_576_5)">
<path d="M0.546304 11.4487L5.81306 13.4144L7.85162 19.9704C7.98206 20.3903 8.49551 20.5455 8.83631 20.2669L11.7721 17.8736C12.0798 17.6228 12.5182 17.6103 12.8398 17.8438L18.1349 21.6881C18.4994 21.9531 19.0159 21.7533 19.1074 21.3128L22.9863 2.6544C23.0861 2.17318 22.6133 1.77173 22.1551 1.94895L0.540133 10.2873C0.0067213 10.4931 0.0113689 11.2483 0.546304 11.4487ZM7.52309 12.368L17.8163 6.02843C18.0013 5.91483 18.1916 6.16496 18.0328 6.31232L9.53788 14.2087C9.23929 14.4867 9.04667 14.8586 8.99212 15.2624L8.70275 17.4068C8.66443 17.6931 8.26221 17.7216 8.1832 17.4445L7.07029 13.534C6.94282 13.088 7.12857 12.6115 7.52309 12.368Z" fill="black"/>
</g>
<defs>
<clipPath id="clip0_576_5">
<rect width="22.8572" height="22.8572" fill="white" transform="translate(0.142578 0.428467)"/>
</clipPath>
</defs>
</svg>
