<svg width="93" height="93" viewBox="0 0 93 93" fill="none" xmlns="http://www.w3.org/2000/svg">
<path d="M21.25 92.67C9.57996 92.67 0.0799561 83.17 0.0799561 71.5V21.17C0.0799561 9.5 9.57996 0 21.25 0H71.58C83.25 0 92.75 9.5 92.75 21.17V71.5C92.75 83.17 83.25 92.67 71.58 92.67H21.25Z" fill="url(#paint0_linear_3_429)"/>
<path d="M71.58 83.3H21.25C14.73 83.3 9.44995 78.02 9.44995 71.5V21.35C9.44995 14.74 14.81 9.38 21.42 9.38H71.57C78.09 9.38 83.37 14.66 83.37 21.18V71.51C83.38 78.01 78.09 83.3 71.58 83.3Z" fill="url(#paint1_linear_3_429)"/>
<path d="M67.7 39.2101C67.66 40.0301 67.3001 49.7401 66.9801 53.4801C66.4601 57.7401 64.48 61.6401 61.39 64.4701C55.8 69.5301 48.27 69.3901 43.89 64.1601L38.23 56.7401L31.09 47.0201C31.07 46.9801 31.04 46.9501 31.01 46.9301C30.87 46.7801 30.75 46.6101 30.65 46.4201C30.34 45.8701 30.27 45.2301 30.42 44.6101C30.58 44.0001 30.96 43.4901 31.5 43.1701C31.85 42.9501 32.25 42.8601 32.63 42.8601C33.11 42.8601 33.58 43.0101 33.97 43.3001L39.41 50.7101L41.84 53.9001C42.15 54.3001 42.71 54.3701 43.11 54.0601C43.5 53.7401 43.57 53.1601 43.27 52.7401L36.16 43.0601C35.92 42.6301 35.62 42.2601 35.26 41.9601L30.4 35.3301C30.37 35.3001 30.35 35.2601 30.32 35.2401C30.18 35.0901 30.05 34.9301 29.95 34.7401C29.65 34.1801 29.57 33.5401 29.73 32.9301C29.88 32.3201 30.27 31.8001 30.8 31.4901C31.33 31.1701 31.95 31.0901 32.54 31.2501C33.14 31.4201 33.63 31.8101 33.93 32.3701C34.01 32.5201 34.13 32.6401 34.26 32.7201L45.7701 48.2501C46.08 48.6601 46.65 48.7401 47.05 48.4201C47.44 48.1001 47.51 47.5101 47.21 47.1001L33.94 29.1901L33.86 29.1101C33.72 28.9601 33.6 28.7901 33.5 28.6001C32.87 27.4601 33.25 26.0101 34.35 25.3501C34.87 25.0301 35.49 24.9501 36.09 25.1201C36.68 25.2801 37.17 25.6801 37.47 26.2301C37.49 26.2701 37.51 26.3101 37.53 26.3301L39.42 28.9201C39.43 28.9301 39.43 28.9501 39.44 28.9601C39.61 29.2701 39.8201 29.5501 40.0601 29.8101L49.68 42.9801C49.98 43.3901 50.5501 43.4801 50.9501 43.1601C51.35 42.8501 51.43 42.2601 51.12 41.8401L40.96 27.9101C40.71 27.3801 40.65 26.7901 40.8 26.2201C40.96 25.6101 41.34 25.1001 41.88 24.7801C42.4 24.4601 43.03 24.3801 43.62 24.5401C44.21 24.7101 44.7 25.1001 45 25.6601C45.02 25.7001 45.05 25.7401 45.07 25.7701L57.25 41.9601C57.25 41.9701 57.26 41.9701 57.26 41.9701L60.3101 45.9501C60.4501 46.1301 60.64 46.2401 60.84 46.2901C60.89 46.3001 60.93 46.3001 60.98 46.3001C61.19 46.3201 61.4101 46.2401 61.5801 46.1001C61.6901 46.0101 61.7801 45.8901 61.8301 45.7601L66.17 36.7601C66.65 37.0301 67.59 37.9701 67.7 39.2101Z" fill="#FED401"/>
<path d="M66.15 34.8501C65.43 34.7701 64.82 35.1501 64.58 35.8401L60.83 43.6401L46.53 24.6701C45.98 23.7101 45.12 23.0301 44.08 22.7301C43.02 22.4401 41.92 22.5801 40.97 23.1401C40.11 23.6601 39.47 24.4601 39.14 25.4201L39.01 25.2501C38.47 24.2901 37.6 23.6001 36.56 23.3101C35.5 23.0101 34.4 23.1501 33.45 23.7201C31.57 24.8301 30.86 27.2801 31.79 29.2701C31.14 29.3001 30.49 29.4901 29.9 29.8301C28.95 30.3901 28.26 31.3101 27.98 32.4101C27.69 33.5101 27.84 34.6601 28.38 35.6501C28.54 35.9601 28.75 36.2401 28.99 36.5001L32.26 40.9701C31.69 41.0201 31.12 41.2001 30.6 41.5101C29.65 42.0801 28.96 43.0001 28.67 44.1001C28.39 45.2001 28.53 46.3501 29.07 47.3401C29.24 47.6501 29.45 47.9301 29.69 48.1901L36.81 57.8901L42.51 65.3601C45.13 68.4901 48.7 70.0701 52.41 70.0701C55.9 70.0701 59.51 68.6901 62.59 65.8901C66.02 62.7601 68.22 58.4201 68.79 53.6801C69.13 49.7201 69.5 39.6501 69.52 39.2301V39.1301C69.36 36.9101 67.58 35.0001 66.15 34.8501ZM66.98 53.4801C66.46 57.7401 64.48 61.6401 61.39 64.4701C55.8 69.5301 48.27 69.3901 43.89 64.1601L38.23 56.7401L31.09 47.0201C31.07 46.9801 31.04 46.9501 31.01 46.9301C30.87 46.7801 30.75 46.6101 30.65 46.4201C30.34 45.8701 30.27 45.2301 30.42 44.6101C30.58 44.0001 30.96 43.4901 31.5 43.1701C31.85 42.9501 32.25 42.8601 32.63 42.8601C33.11 42.8601 33.58 43.0101 33.97 43.3001L39.41 50.7101L41.84 53.9001C42.15 54.3001 42.71 54.3701 43.11 54.0601C43.5 53.7401 43.57 53.1601 43.27 52.7401L36.16 43.0601C35.92 42.6301 35.62 42.2601 35.26 41.9601L30.4 35.3301C30.37 35.3001 30.35 35.2601 30.32 35.2401C30.18 35.0901 30.05 34.9301 29.95 34.7401C29.65 34.1801 29.57 33.5401 29.73 32.9301C29.88 32.3201 30.27 31.8001 30.8 31.4901C31.33 31.1701 31.95 31.0901 32.54 31.2501C33.14 31.4201 33.63 31.8101 33.93 32.3701C34.01 32.5201 34.13 32.6401 34.26 32.7201L45.77 48.2501C46.08 48.6601 46.65 48.7401 47.05 48.4201C47.44 48.1001 47.51 47.5101 47.21 47.1001L33.94 29.1901L33.86 29.1101C33.72 28.9601 33.6 28.7901 33.5 28.6001C32.87 27.4601 33.25 26.0101 34.35 25.3501C34.87 25.0301 35.49 24.9501 36.09 25.1201C36.68 25.2801 37.17 25.6801 37.47 26.2301C37.49 26.2701 37.51 26.3101 37.53 26.3301L39.42 28.9201C39.43 28.9301 39.43 28.9501 39.44 28.9601C39.61 29.2701 39.82 29.5501 40.06 29.8101L49.68 42.9801C49.98 43.3901 50.55 43.4801 50.95 43.1601C51.35 42.8501 51.43 42.2601 51.12 41.8401L40.96 27.9101C40.71 27.3801 40.65 26.7901 40.8 26.2201C40.96 25.6101 41.34 25.1001 41.88 24.7801C42.4 24.4601 43.03 24.3801 43.62 24.5401C44.21 24.7101 44.7 25.1001 45 25.6601C45.02 25.7001 45.05 25.7401 45.07 25.7701L57.25 41.9601C57.25 41.9701 57.26 41.9701 57.26 41.9701L60.31 45.9501C60.45 46.1301 60.64 46.2401 60.84 46.2901C60.89 46.3001 60.93 46.3001 60.98 46.3001C61.19 46.3201 61.41 46.2401 61.58 46.1001C61.69 46.0101 61.78 45.8901 61.83 45.7601L66.17 36.7601C66.67 37.0001 67.61 37.9501 67.72 39.1901C67.67 40.0301 67.31 49.7501 66.98 53.4801Z" fill="#010101"/>
<path d="M31.9201 59.4701C29.4701 59.4701 27.4801 57.0901 27.4801 54.1601C27.4801 53.6401 27.8901 53.2201 28.3801 53.2201C28.8801 53.2201 29.2801 53.6401 29.2801 54.1601C29.2801 56.0501 30.4601 57.5901 31.9101 57.5901C32.4101 57.5901 32.8101 58.0101 32.8101 58.5301C32.8101 59.0501 32.4201 59.4701 31.9201 59.4701Z" fill="#010101"/>
<path d="M31.9201 64.2201C27.1701 64.2201 23.3101 59.5201 23.3101 53.7501C23.3101 53.2301 23.7201 52.8101 24.2101 52.8101C24.7101 52.8101 25.1101 53.2301 25.1101 53.7501C25.1101 58.4901 28.1601 62.3401 31.9101 62.3401C32.4101 62.3401 32.8101 62.7601 32.8101 63.2801C32.8101 63.8001 32.4201 64.2201 31.9201 64.2201Z" fill="#010101"/>
<path d="M58.7701 34.7301C58.2701 34.7301 57.8701 34.3101 57.8701 33.7901C57.8701 31.9001 56.6901 30.3601 55.2401 30.3601C54.7401 30.3601 54.3401 29.9401 54.3401 29.4201C54.3401 28.9001 54.7501 28.4801 55.2401 28.4801C57.6901 28.4801 59.6801 30.8601 59.6801 33.7901C59.6801 34.3101 59.2701 34.7301 58.7701 34.7301Z" fill="#010101"/>
<path d="M62.9401 35.1401C62.4401 35.1401 62.0401 34.7201 62.0401 34.2001C62.0401 29.4601 58.9901 25.6101 55.2401 25.6101C54.7401 25.6101 54.3401 25.1901 54.3401 24.6701C54.3401 24.1501 54.7501 23.7301 55.2401 23.7301C59.9901 23.7301 63.8501 28.4301 63.8501 34.2001C63.8501 34.7201 63.4401 35.1401 62.9401 35.1401Z" fill="#010101"/>
<defs>
<linearGradient id="paint0_linear_3_429" x1="64.0742" y1="88.8062" x2="30.7487" y2="8.6557" gradientUnits="userSpaceOnUse">
<stop stop-color="#EFF2F5"/>
<stop offset="0.4215" stop-color="#F7F9FA"/>
<stop offset="1" stop-color="white"/>
</linearGradient>
<linearGradient id="paint1_linear_3_429" x1="38.3276" y1="6.36291" x2="53.8465" y2="83.0725" gradientUnits="userSpaceOnUse">
<stop stop-color="#EFF2F5"/>
<stop offset="0.269" stop-color="#F3F6F8"/>
<stop offset="1" stop-color="white"/>
</linearGradient>
</defs>
</svg>
