<?xml version="1.0" encoding="utf-8"?>
<!-- Generator: Adobe Illustrator 25.2.3, SVG Export Plug-In . SVG Version: 6.00 Build 0)  -->
<svg version="1.1" id="Layer_1" xmlns="http://www.w3.org/2000/svg" xmlns:xlink="http://www.w3.org/1999/xlink" x="0px" y="0px"
	 viewBox="0 0 92.67 92.67" style="enable-background:new 0 0 92.67 92.67;" xml:space="preserve">
<style type="text/css">
	.st0{fill:url(#SVGID_1_);}
	.st1{fill:url(#SVGID_2_);}
	.st2{fill-rule:evenodd;clip-rule:evenodd;fill:#EF4259;}
	.st3{fill-rule:evenodd;clip-rule:evenodd;fill:#1567AC;}
	.st4{clip-path:url(#SVGID_4_);fill-rule:evenodd;clip-rule:evenodd;fill:#1567AC;}
	.st5{clip-path:url(#SVGID_4_);fill-rule:evenodd;clip-rule:evenodd;fill:#1866AC;}
	.st6{clip-path:url(#SVGID_4_);fill-rule:evenodd;clip-rule:evenodd;fill:#1C66AA;}
	.st7{clip-path:url(#SVGID_4_);fill-rule:evenodd;clip-rule:evenodd;fill:#2065A8;}
	.st8{clip-path:url(#SVGID_4_);fill-rule:evenodd;clip-rule:evenodd;fill:#2265A7;}
	.st9{clip-path:url(#SVGID_4_);fill-rule:evenodd;clip-rule:evenodd;fill:#2664A6;}
	.st10{clip-path:url(#SVGID_4_);fill-rule:evenodd;clip-rule:evenodd;fill:#2964A5;}
	.st11{clip-path:url(#SVGID_4_);fill-rule:evenodd;clip-rule:evenodd;fill:#2C63A4;}
	.st12{clip-path:url(#SVGID_4_);fill-rule:evenodd;clip-rule:evenodd;fill:#2F62A3;}
	.st13{clip-path:url(#SVGID_4_);fill-rule:evenodd;clip-rule:evenodd;fill:#3362A2;}
	.st14{clip-path:url(#SVGID_4_);fill-rule:evenodd;clip-rule:evenodd;fill:#35609F;}
	.st15{clip-path:url(#SVGID_4_);fill-rule:evenodd;clip-rule:evenodd;fill:#38609E;}
	.st16{clip-path:url(#SVGID_4_);fill-rule:evenodd;clip-rule:evenodd;fill:#3C609E;}
	.st17{clip-path:url(#SVGID_4_);fill-rule:evenodd;clip-rule:evenodd;fill:#40609D;}
	.st18{clip-path:url(#SVGID_4_);fill-rule:evenodd;clip-rule:evenodd;fill:#435F9A;}
	.st19{clip-path:url(#SVGID_4_);fill-rule:evenodd;clip-rule:evenodd;fill:#485E99;}
	.st20{clip-path:url(#SVGID_4_);fill-rule:evenodd;clip-rule:evenodd;fill:#4A5E98;}
	.st21{clip-path:url(#SVGID_4_);fill-rule:evenodd;clip-rule:evenodd;fill:#4E5D97;}
	.st22{clip-path:url(#SVGID_4_);fill-rule:evenodd;clip-rule:evenodd;fill:#505D96;}
	.st23{clip-path:url(#SVGID_4_);fill-rule:evenodd;clip-rule:evenodd;fill:#535C95;}
	.st24{clip-path:url(#SVGID_4_);fill-rule:evenodd;clip-rule:evenodd;fill:#575C94;}
	.st25{clip-path:url(#SVGID_4_);fill-rule:evenodd;clip-rule:evenodd;fill:#5A5B92;}
	.st26{clip-path:url(#SVGID_4_);fill-rule:evenodd;clip-rule:evenodd;fill:#5E5A91;}
	.st27{clip-path:url(#SVGID_4_);fill-rule:evenodd;clip-rule:evenodd;fill:#605A90;}
	.st28{clip-path:url(#SVGID_4_);fill-rule:evenodd;clip-rule:evenodd;fill:#64598F;}
	.st29{clip-path:url(#SVGID_4_);fill-rule:evenodd;clip-rule:evenodd;fill:#67598D;}
	.st30{clip-path:url(#SVGID_4_);fill-rule:evenodd;clip-rule:evenodd;fill:#6B588C;}
	.st31{clip-path:url(#SVGID_4_);fill-rule:evenodd;clip-rule:evenodd;fill:#6E588B;}
	.st32{clip-path:url(#SVGID_4_);fill-rule:evenodd;clip-rule:evenodd;fill:#71578A;}
	.st33{clip-path:url(#SVGID_4_);fill-rule:evenodd;clip-rule:evenodd;fill:#755687;}
	.st34{clip-path:url(#SVGID_4_);fill-rule:evenodd;clip-rule:evenodd;fill:#785687;}
	.st35{clip-path:url(#SVGID_4_);fill-rule:evenodd;clip-rule:evenodd;fill:#7B5586;}
	.st36{clip-path:url(#SVGID_4_);fill-rule:evenodd;clip-rule:evenodd;fill:#7F5584;}
	.st37{clip-path:url(#SVGID_4_);fill-rule:evenodd;clip-rule:evenodd;fill:#825483;}
	.st38{clip-path:url(#SVGID_4_);fill-rule:evenodd;clip-rule:evenodd;fill:#855482;}
	.st39{clip-path:url(#SVGID_4_);fill-rule:evenodd;clip-rule:evenodd;fill:#895280;}
	.st40{clip-path:url(#SVGID_4_);fill-rule:evenodd;clip-rule:evenodd;fill:#8C527E;}
	.st41{clip-path:url(#SVGID_4_);fill-rule:evenodd;clip-rule:evenodd;fill:#8F527E;}
	.st42{clip-path:url(#SVGID_4_);fill-rule:evenodd;clip-rule:evenodd;fill:#93517D;}
	.st43{clip-path:url(#SVGID_4_);fill-rule:evenodd;clip-rule:evenodd;fill:#96517C;}
	.st44{clip-path:url(#SVGID_4_);fill-rule:evenodd;clip-rule:evenodd;fill:#98507A;}
	.st45{clip-path:url(#SVGID_4_);fill-rule:evenodd;clip-rule:evenodd;fill:#9C5079;}
	.st46{clip-path:url(#SVGID_4_);fill-rule:evenodd;clip-rule:evenodd;fill:#A04E78;}
	.st47{clip-path:url(#SVGID_4_);fill-rule:evenodd;clip-rule:evenodd;fill:#A34E77;}
	.st48{clip-path:url(#SVGID_4_);fill-rule:evenodd;clip-rule:evenodd;fill:#A64E75;}
	.st49{clip-path:url(#SVGID_4_);fill-rule:evenodd;clip-rule:evenodd;fill:#AA4D74;}
	.st50{clip-path:url(#SVGID_4_);fill-rule:evenodd;clip-rule:evenodd;fill:#AD4D73;}
	.st51{clip-path:url(#SVGID_4_);fill-rule:evenodd;clip-rule:evenodd;fill:#B04C71;}
	.st52{clip-path:url(#SVGID_4_);fill-rule:evenodd;clip-rule:evenodd;fill:#B44C70;}
	.st53{clip-path:url(#SVGID_4_);fill-rule:evenodd;clip-rule:evenodd;fill:#B74B6F;}
	.st54{clip-path:url(#SVGID_4_);fill-rule:evenodd;clip-rule:evenodd;fill:#BA4A6D;}
	.st55{clip-path:url(#SVGID_4_);fill-rule:evenodd;clip-rule:evenodd;fill:#BD496B;}
	.st56{clip-path:url(#SVGID_4_);fill-rule:evenodd;clip-rule:evenodd;fill:#C1486A;}
	.st57{clip-path:url(#SVGID_4_);fill-rule:evenodd;clip-rule:evenodd;fill:#C44869;}
	.st58{clip-path:url(#SVGID_4_);fill-rule:evenodd;clip-rule:evenodd;fill:#C64768;}
	.st59{clip-path:url(#SVGID_4_);fill-rule:evenodd;clip-rule:evenodd;fill:#CA4766;}
	.st60{clip-path:url(#SVGID_4_);fill-rule:evenodd;clip-rule:evenodd;fill:#CD4765;}
	.st61{clip-path:url(#SVGID_4_);fill-rule:evenodd;clip-rule:evenodd;fill:#D14665;}
	.st62{clip-path:url(#SVGID_4_);fill-rule:evenodd;clip-rule:evenodd;fill:#D54663;}
	.st63{clip-path:url(#SVGID_4_);fill-rule:evenodd;clip-rule:evenodd;fill:#D84562;}
	.st64{clip-path:url(#SVGID_4_);fill-rule:evenodd;clip-rule:evenodd;fill:#DA4461;}
	.st65{clip-path:url(#SVGID_4_);fill-rule:evenodd;clip-rule:evenodd;fill:#DD435F;}
	.st66{clip-path:url(#SVGID_4_);fill-rule:evenodd;clip-rule:evenodd;fill:#E2435E;}
	.st67{clip-path:url(#SVGID_4_);fill-rule:evenodd;clip-rule:evenodd;fill:#E4435D;}
	.st68{clip-path:url(#SVGID_4_);fill-rule:evenodd;clip-rule:evenodd;fill:#E7435C;}
	.st69{clip-path:url(#SVGID_4_);fill-rule:evenodd;clip-rule:evenodd;fill:#EB425B;}
	.st70{clip-path:url(#SVGID_4_);fill-rule:evenodd;clip-rule:evenodd;fill:#EF4259;}
</style>
<g>
	<linearGradient id="SVGID_1_" gradientUnits="userSpaceOnUse" x1="63.9962" y1="88.8105" x2="30.6706" y2="8.66">
		<stop  offset="0" style="stop-color:#EFF2F5"/>
		<stop  offset="0.4215" style="stop-color:#F7F9FA"/>
		<stop  offset="1" style="stop-color:#FFFFFF"/>
	</linearGradient>
	<path class="st0" d="M21.17,92.67C9.5,92.67,0,83.17,0,71.5V21.17C0,9.5,9.5,0,21.17,0H71.5c11.67,0,21.17,9.5,21.17,21.17V71.5
		c0,11.67-9.5,21.17-21.17,21.17H21.17z"/>
	<linearGradient id="SVGID_2_" gradientUnits="userSpaceOnUse" x1="38.2497" y1="6.3672" x2="53.7685" y2="83.0768">
		<stop  offset="0" style="stop-color:#EFF2F5"/>
		<stop  offset="0.269" style="stop-color:#F3F6F8"/>
		<stop  offset="1" style="stop-color:#FFFFFF"/>
	</linearGradient>
	<path class="st1" d="M71.5,83.3H21.17c-6.52,0-11.8-5.28-11.8-11.8V21.35c0-6.61,5.36-11.97,11.97-11.97H71.5
		c6.52,0,11.8,5.28,11.8,11.8V71.5C83.3,78.02,78.02,83.3,71.5,83.3z"/>
</g>
<g>
	<path class="st2" d="M41.97,46.83h-4.95c-0.05,0-0.08,0.03-0.1,0.08c-0.13,2.25-0.56,4.65-1.16,6.62c0,0.03,0,0.05,0.03,0.08
		c0.03,0.03,0.05,0.03,0.08,0.03h1.69c0.05,0,0.08-0.03,0.08-0.05c0.48-1.51,0.86-3.48,1.01-5.15h1.62v5.13c0,0.05,0.05,0.1,0.1,0.1
		h1.62c0.05,0,0.1-0.05,0.1-0.1V46.9C42.07,46.85,42.02,46.83,41.97,46.83L41.97,46.83L41.97,46.83z M62.9,46.83h-1.62
		c-0.05,0-0.1,0.05-0.1,0.1v5.13c-0.35,0.1-0.71,0.15-1.11,0.15c-1.06,0-1.31-0.33-1.31-1.74v-3.53c0-0.05-0.05-0.1-0.1-0.1l-1.59,0
		c-0.05,0-0.1,0.05-0.1,0.1v3.71c0,2.32,0.78,3.21,2.78,3.21c1.14,0,2.42-0.3,3.18-0.58c0.03-0.03,0.05-0.05,0.05-0.08v-6.26
		C63,46.85,62.95,46.83,62.9,46.83L62.9,46.83L62.9,46.83z M28.66,46.83h-1.64c-0.05,0-0.08,0.03-0.08,0.08
		c-0.25,1.01-0.78,2.73-1.49,4.52l-1.64-4.52c-0.03-0.03-0.05-0.05-0.08-0.05h-1.67c-0.03,0-0.05,0.03-0.08,0.05
		c-0.03,0.03-0.03,0.05,0,0.08l2.47,6.77c-0.25,0.53-0.48,0.96-0.71,1.36c-0.18,0.3-0.33,0.61-0.48,0.91
		c-0.03,0.03-0.03,0.05,0,0.08c0.03,0.03,0.05,0.05,0.08,0.05l1.79,0c0.03,0,0.08-0.03,0.08-0.05c0.3-0.58,0.68-1.39,1.04-2.22
		c1.06-2.47,1.89-4.8,2.52-6.92c0-0.03,0-0.05-0.03-0.08C28.71,46.83,28.69,46.83,28.66,46.83L28.66,46.83L28.66,46.83z
		 M34.54,52.05c0-0.03-0.03-0.05-0.05-0.05l-0.08,0c-0.4,0.15-1.14,0.25-1.64,0.25c-1.14,0-1.67-0.3-1.67-2.02
		c0-1.39,0.18-2.02,1.67-2.02c0.43,0,0.81,0.05,1.31,0.2c0.05,0,0.08,0,0.1-0.05c0.18-0.35,0.4-0.78,0.66-1.31v-0.08
		c0-0.03-0.03-0.05-0.05-0.05c-0.66-0.2-1.44-0.33-2.15-0.33c-2.35,0-3.41,1.11-3.41,3.61c0,2.52,1.06,3.66,3.41,3.66
		c0.58,0,1.77-0.13,2.32-0.35c0.05-0.03,0.08-0.08,0.05-0.13L34.54,52.05L34.54,52.05L34.54,52.05z M49.92,46.83h-1.64
		c-0.05,0-0.08,0.03-0.08,0.08c-0.25,1.04-0.78,2.73-1.49,4.52l-1.64-4.52c-0.03-0.03-0.05-0.05-0.08-0.05h-1.67
		c-0.03,0-0.05,0.03-0.08,0.05c-0.03,0.03-0.03,0.05,0,0.08l2.47,6.77c-0.25,0.53-0.48,0.96-0.71,1.36
		c-0.18,0.3-0.33,0.61-0.48,0.93c-0.03,0.03-0.03,0.05,0,0.08c0.03,0.03,0.05,0.05,0.08,0.05l1.79,0c0.03,0,0.08-0.03,0.08-0.05
		c0.3-0.58,0.68-1.39,1.04-2.22c1.04-2.47,1.89-4.8,2.52-6.92c0-0.03,0-0.05-0.03-0.08C49.97,46.83,49.95,46.83,49.92,46.83
		L49.92,46.83L49.92,46.83z M55.98,46.83h-4.77c-0.05,0-0.1,0.05-0.1,0.1v6.64c0,0.05,0.05,0.1,0.1,0.1h1.62
		c0.05,0,0.1-0.05,0.1-0.1v-5.13h2.5c0.03,0,0.08-0.03,0.08-0.05c0.2-0.45,0.38-0.93,0.58-1.41V46.9
		C56.03,46.83,56.01,46.83,55.98,46.83z"/>
</g>
<g>
	<path class="st3" d="M30.58,36.63c-2.32,0-3.23,1.01-3.23,3.56c0,2.6,0.91,3.61,3.23,3.61c2.35,0,3.26-1.01,3.26-3.61
		C33.84,37.61,32.93,36.63,30.58,36.63L30.58,36.63L30.58,36.63z M30.58,42.31c-1.06,0-1.39-0.28-1.39-2.1c0-1.92,0.35-2.1,1.39-2.1
		c1.06,0,1.41,0.18,1.41,2.1C31.99,42.03,31.67,42.31,30.58,42.31L30.58,42.31L30.58,42.31z M40.3,42.03c0-0.03-0.03-0.05-0.05-0.05
		h-0.08c-0.4,0.15-1.14,0.25-1.64,0.25c-1.14,0-1.67-0.3-1.67-2.02c0-1.39,0.18-2.02,1.67-2.02c0.43,0,0.81,0.05,1.31,0.2
		c0.05,0,0.08,0,0.1-0.05c0.18-0.35,0.4-0.78,0.66-1.31v-0.08c0-0.03-0.03-0.05-0.05-0.05c-0.66-0.2-1.44-0.33-2.15-0.33
		c-2.35,0-3.41,1.11-3.41,3.61c0,2.52,1.06,3.66,3.41,3.66c0.58,0,1.77-0.13,2.32-0.35c0.05-0.03,0.08-0.08,0.05-0.13L40.3,42.03
		L40.3,42.03L40.3,42.03z M26.84,36.8h-4.77c-0.05,0-0.1,0.05-0.1,0.1v6.64c0,0.05,0.05,0.1,0.1,0.1h1.62c0.05,0,0.1-0.05,0.1-0.1
		v-5.15h2.47c0.03,0,0.08-0.03,0.08-0.05c0.2-0.45,0.38-0.93,0.58-1.41v-0.08C26.89,36.83,26.87,36.8,26.84,36.8z"/>
</g>
<g>
	<g>
		<defs>
			<path id="SVGID_3_" d="M70.45,52.94v-0.1c0-0.05,0-0.13,0.03-0.18c0.08-0.93,0.13-2.07,0.18-3.38v-0.1
				c0.03-0.88,0.05-1.84,0.05-2.83c0-0.98-0.03-1.94-0.05-2.83v-0.1c-0.05-1.29-0.1-2.45-0.18-3.38c0-0.05,0-0.13-0.03-0.18v-0.1
				c0-0.1-0.03-0.18-0.03-0.28v-0.1c-0.08-0.98-0.13-1.59-0.15-1.64c0-0.1-0.03-0.2-0.03-0.28v-0.08c-0.03-0.18-0.05-0.33-0.1-0.51
				c0-0.03,0-0.05-0.03-0.08c-0.43-2.05-1.57-4.29-2.98-5.98c-0.56-0.66-1.14-1.24-1.74-1.69c-0.05-0.05-0.76-0.56-1.87-1.34
				c-1.29-0.88-3.13-2.12-5.23-3.33c-3.74-2.2-7.04-3.74-7.5-3.91c-0.03,0-0.03-0.03-0.03-0.03c-0.98-0.43-2.17-0.73-3.46-0.86
				c-0.25-0.03-0.5-0.05-0.76-0.05c-0.25-0.03-0.48-0.03-0.71-0.03H45.5c-1.72,0.05-3.31,0.35-4.57,0.93
				c-0.18,0.08-3.53,1.62-7.35,3.86l-0.15,0.08c-3.91,2.3-6.97,4.57-7.1,4.67c-0.96,0.71-1.82,1.62-2.6,2.78
				c-0.18,0.25-0.18,0.91,0.58,0.91h1.94c0.83,0,1.04-0.51,1.97-1.19c1.04-0.76,3.08-2.27,6.82-4.49c2.7-1.59,5.23-2.85,6.46-3.43
				c0.03,0,0.05-0.03,0.08-0.03c0,0,0.03,0,0.03-0.03c0,0,0.03,0,0.03-0.03c0.03,0,0.05-0.03,0.05-0.03c0.03,0,0.05-0.03,0.08-0.03
				c0.3-0.15,0.5-0.23,0.5-0.23c0.86-0.38,2.07-0.63,3.36-0.66h0.51c0.38,0,0.76,0.03,1.11,0.08c0.78,0.1,1.49,0.25,2.07,0.51
				c0.05,0.03,0.13,0.05,0.18,0.08c0,0,0.03,0.03,0.1,0.05c0.58,0.25,3.71,1.74,7.12,3.74c2.02,1.19,3.81,2.37,5.05,3.23
				c1.09,0.76,1.74,1.24,1.77,1.26c0.48,0.35,0.96,0.86,1.41,1.41c1.14,1.46,2.07,3.46,2.22,5c0,0.03,0.08,0.63,0.15,1.67
				c0,0.08,0,0.13,0.03,0.2v0.15c0,0.1,0.03,0.18,0.03,0.28v0.1c0,0.05,0,0.13,0.03,0.18c0,0.13,0.03,0.25,0.03,0.38
				c0,0.08,0,0.15,0.03,0.23v0.05c0,0.1,0,0.18,0.03,0.28v0.2c0.08,1.31,0.13,2.88,0.13,4.52s-0.05,3.21-0.13,4.52v0.2
				c0,0.1,0,0.18-0.03,0.28v0.05c0,0.08,0,0.15-0.03,0.23c0,0.13-0.03,0.25-0.03,0.38c0,0.08,0,0.13-0.03,0.18v0.1
				c0,0.1-0.03,0.18-0.03,0.28v0.15c0,0.08,0,0.15-0.03,0.2c-0.08,1.04-0.15,1.67-0.15,1.67c-0.15,1.54-1.09,3.53-2.22,5
				c-0.45,0.58-0.93,1.06-1.41,1.41c-0.03,0-0.68,0.51-1.77,1.26c-1.24,0.86-3.06,2.05-5.05,3.23c-3.41,2.02-6.56,3.48-7.12,3.74
				l-0.1,0.05c-0.05,0.03-0.13,0.05-0.18,0.08c-0.58,0.23-1.29,0.4-2.07,0.51c-0.35,0.05-0.73,0.08-1.11,0.08l-0.5,0
				c-1.29-0.03-2.5-0.25-3.36-0.66c0,0-0.18-0.08-0.51-0.23c-0.03-0.03-0.08-0.03-0.1-0.05c-0.03-0.03-0.05-0.03-0.08-0.05
				c-0.03,0-0.03-0.03-0.05-0.03c-0.03,0-0.05-0.03-0.08-0.03c-0.03-0.03-0.05-0.03-0.1-0.05h-0.03c-1.29-0.5-3.71-1.72-6.29-3.23
				c-3.76-2.2-5.78-3.74-6.82-4.49c-0.93-0.68-1.14-1.19-1.97-1.19h-1.94c-0.76,0-0.76,0.66-0.58,0.91c0.78,1.16,1.64,2.07,2.6,2.78
				c0.13,0.1,3.21,2.37,7.1,4.67c0.2,0.13,0.4,0.25,0.63,0.35c3.61,2.07,6.72,3.48,6.89,3.59c1.24,0.56,2.85,0.88,4.57,0.93l0.35,0
				c0.23,0,0.45,0,0.68-0.03c0.25,0,0.5-0.03,0.76-0.05c1.29-0.13,2.5-0.43,3.46-0.86c0,0,0.03,0,0.03-0.03
				c0.43-0.2,3.76-1.74,7.47-3.91c2.1-1.24,3.94-2.45,5.23-3.33c1.11-0.78,1.82-1.29,1.87-1.34c0.61-0.45,1.19-1.04,1.74-1.69
				c1.41-1.69,2.55-3.94,2.98-5.98c0-0.03,0-0.05,0.03-0.08c0.03-0.18,0.08-0.35,0.1-0.51v-0.08c0.03-0.1,0.03-0.2,0.03-0.28
				c0-0.05,0.08-0.66,0.15-1.64v-0.1C70.45,53.12,70.45,53.04,70.45,52.94L70.45,52.94z M70.45,52.94L70.45,52.94L70.45,52.94z"/>
		</defs>
		<clipPath id="SVGID_4_">
			<use xlink:href="#SVGID_3_"  style="overflow:visible;"/>
		</clipPath>
		<rect x="23.56" y="72.55" class="st4" width="47.14" height="0.54"/>
		<rect x="23.56" y="72.34" class="st4" width="47.14" height="0.31"/>
		<rect x="23.56" y="72.13" class="st4" width="47.14" height="0.31"/>
		<rect x="23.56" y="71.92" class="st4" width="47.14" height="0.31"/>
		<rect x="23.56" y="71.72" class="st4" width="47.14" height="0.31"/>
		<rect x="23.56" y="71.51" class="st4" width="47.14" height="0.31"/>
		<rect x="23.56" y="71.3" class="st4" width="47.14" height="0.31"/>
		<rect x="23.56" y="71.09" class="st4" width="47.14" height="0.31"/>
		<rect x="23.56" y="70.88" class="st4" width="47.14" height="0.31"/>
		<rect x="23.56" y="70.68" class="st4" width="47.14" height="0.31"/>
		<rect x="23.56" y="70.47" class="st4" width="47.14" height="0.31"/>
		<rect x="23.56" y="70.26" class="st4" width="47.14" height="0.31"/>
		<rect x="23.56" y="70.05" class="st4" width="47.14" height="0.31"/>
		<rect x="23.56" y="69.84" class="st4" width="47.14" height="0.31"/>
		<rect x="23.56" y="69.63" class="st4" width="47.14" height="0.31"/>
		<rect x="23.56" y="69.43" class="st4" width="47.14" height="0.31"/>
		<rect x="23.56" y="69.22" class="st4" width="47.14" height="0.31"/>
		<rect x="23.56" y="69.01" class="st4" width="47.14" height="0.31"/>
		<rect x="23.56" y="68.8" class="st4" width="47.14" height="0.31"/>
		<rect x="23.56" y="68.59" class="st4" width="47.14" height="0.31"/>
		<rect x="23.56" y="68.39" class="st4" width="47.14" height="0.31"/>
		<rect x="23.56" y="68.18" class="st4" width="47.14" height="0.31"/>
		<rect x="23.56" y="67.97" class="st4" width="47.14" height="0.31"/>
		<rect x="23.56" y="67.76" class="st4" width="47.14" height="0.31"/>
		<rect x="23.56" y="67.55" class="st4" width="47.14" height="0.31"/>
		<rect x="23.56" y="67.35" class="st4" width="47.14" height="0.31"/>
		<rect x="23.56" y="67.14" class="st4" width="47.14" height="0.31"/>
		<rect x="23.56" y="66.93" class="st4" width="47.14" height="0.31"/>
		<rect x="23.56" y="66.72" class="st4" width="47.14" height="0.31"/>
		<rect x="23.56" y="66.51" class="st4" width="47.14" height="0.31"/>
		<rect x="23.56" y="66.3" class="st4" width="47.14" height="0.31"/>
		<rect x="23.56" y="66.1" class="st4" width="47.14" height="0.31"/>
		<rect x="23.56" y="65.89" class="st4" width="47.14" height="0.31"/>
		<rect x="23.56" y="65.68" class="st4" width="47.14" height="0.31"/>
		<rect x="23.56" y="65.47" class="st4" width="47.14" height="0.31"/>
		<rect x="23.56" y="65.26" class="st4" width="47.14" height="0.31"/>
		<rect x="23.56" y="65.06" class="st4" width="47.14" height="0.31"/>
		<rect x="23.56" y="64.85" class="st4" width="47.14" height="0.31"/>
		<rect x="23.56" y="64.64" class="st4" width="47.14" height="0.31"/>
		<rect x="23.56" y="64.43" class="st4" width="47.14" height="0.31"/>
		<rect x="23.56" y="64.22" class="st4" width="47.14" height="0.31"/>
		<rect x="23.56" y="64.02" class="st4" width="47.14" height="0.31"/>
		<rect x="23.56" y="63.81" class="st4" width="47.14" height="0.31"/>
		<rect x="23.56" y="63.6" class="st4" width="47.14" height="0.31"/>
		<rect x="23.56" y="63.39" class="st4" width="47.14" height="0.31"/>
		<rect x="23.56" y="63.18" class="st4" width="47.14" height="0.31"/>
		<rect x="23.56" y="62.97" class="st4" width="47.14" height="0.31"/>
		<rect x="23.56" y="62.77" class="st4" width="47.14" height="0.31"/>
		<rect x="23.56" y="62.56" class="st4" width="47.14" height="0.31"/>
		<rect x="23.56" y="62.35" class="st4" width="47.14" height="0.31"/>
		<rect x="23.56" y="62.14" class="st4" width="47.14" height="0.31"/>
		<rect x="23.56" y="61.93" class="st4" width="47.14" height="0.31"/>
		<rect x="23.56" y="61.73" class="st4" width="47.14" height="0.31"/>
		<rect x="23.56" y="61.52" class="st4" width="47.14" height="0.31"/>
		<rect x="23.56" y="61.31" class="st4" width="47.14" height="0.31"/>
		<rect x="23.56" y="61.1" class="st4" width="47.14" height="0.31"/>
		<rect x="23.56" y="60.89" class="st4" width="47.14" height="0.31"/>
		<rect x="23.56" y="60.69" class="st4" width="47.14" height="0.31"/>
		<rect x="23.56" y="60.48" class="st4" width="47.14" height="0.31"/>
		<rect x="23.56" y="60.27" class="st4" width="47.14" height="0.31"/>
		<rect x="23.56" y="60.06" class="st4" width="47.14" height="0.31"/>
		<rect x="23.56" y="59.85" class="st4" width="47.14" height="0.31"/>
		<rect x="23.56" y="59.65" class="st4" width="47.14" height="0.31"/>
		<rect x="23.56" y="59.44" class="st4" width="47.14" height="0.31"/>
		<rect x="23.56" y="59.23" class="st4" width="47.14" height="0.31"/>
		<rect x="23.56" y="59.02" class="st4" width="47.14" height="0.31"/>
		<rect x="23.56" y="58.81" class="st4" width="47.14" height="0.31"/>
		<rect x="23.56" y="58.6" class="st4" width="47.14" height="0.31"/>
		<rect x="23.56" y="58.4" class="st4" width="47.14" height="0.31"/>
		<rect x="23.56" y="58.19" class="st4" width="47.14" height="0.31"/>
		<rect x="23.56" y="57.98" class="st4" width="47.14" height="0.31"/>
		<rect x="23.56" y="57.77" class="st4" width="47.14" height="0.31"/>
		<rect x="23.56" y="57.56" class="st4" width="47.14" height="0.31"/>
		<rect x="23.56" y="57.36" class="st4" width="47.14" height="0.31"/>
		<rect x="23.56" y="57.15" class="st4" width="47.14" height="0.31"/>
		<rect x="23.56" y="56.94" class="st4" width="47.14" height="0.31"/>
		<rect x="23.56" y="56.73" class="st4" width="47.14" height="0.31"/>
		<rect x="23.56" y="56.52" class="st4" width="47.14" height="0.31"/>
		<rect x="23.56" y="56.32" class="st4" width="47.14" height="0.31"/>
		<rect x="23.56" y="56.11" class="st4" width="47.14" height="0.31"/>
		<rect x="23.56" y="55.9" class="st4" width="47.14" height="0.31"/>
		<rect x="23.56" y="55.69" class="st4" width="47.14" height="0.31"/>
		<rect x="23.56" y="55.48" class="st4" width="47.14" height="0.31"/>
		<rect x="23.56" y="55.27" class="st4" width="47.14" height="0.31"/>
		<rect x="23.56" y="55.07" class="st4" width="47.14" height="0.31"/>
		<rect x="23.56" y="54.86" class="st4" width="47.14" height="0.31"/>
		<rect x="23.56" y="54.65" class="st4" width="47.14" height="0.31"/>
		<rect x="23.56" y="54.44" class="st4" width="47.14" height="0.31"/>
		<rect x="23.56" y="54.23" class="st4" width="47.14" height="0.31"/>
		<rect x="23.56" y="54.03" class="st4" width="47.14" height="0.31"/>
		<rect x="23.56" y="53.82" class="st4" width="47.14" height="0.31"/>
		<rect x="23.56" y="53.61" class="st4" width="47.14" height="0.31"/>
		<rect x="23.56" y="53.4" class="st4" width="47.14" height="0.31"/>
		<rect x="23.56" y="53.19" class="st4" width="47.14" height="0.31"/>
		<rect x="23.56" y="52.99" class="st4" width="47.14" height="0.31"/>
		<rect x="23.56" y="52.78" class="st4" width="47.14" height="0.31"/>
		<rect x="23.56" y="52.57" class="st4" width="47.14" height="0.31"/>
		<rect x="23.56" y="52.36" class="st4" width="47.14" height="0.31"/>
		<rect x="23.56" y="52.15" class="st4" width="47.14" height="0.31"/>
		<rect x="23.56" y="51.94" class="st4" width="47.14" height="0.31"/>
		<rect x="23.56" y="51.74" class="st4" width="47.14" height="0.31"/>
		<rect x="23.56" y="51.53" class="st4" width="47.14" height="0.31"/>
		<rect x="23.56" y="51.32" class="st4" width="47.14" height="0.31"/>
		<rect x="23.56" y="51.11" class="st5" width="47.14" height="0.31"/>
		<rect x="23.56" y="50.9" class="st6" width="47.14" height="0.31"/>
		<rect x="23.56" y="50.7" class="st7" width="47.14" height="0.31"/>
		<rect x="23.56" y="50.49" class="st8" width="47.14" height="0.31"/>
		<rect x="23.56" y="50.28" class="st9" width="47.14" height="0.31"/>
		<rect x="23.56" y="50.07" class="st10" width="47.14" height="0.31"/>
		<rect x="23.56" y="49.86" class="st11" width="47.14" height="0.31"/>
		<rect x="23.56" y="49.66" class="st12" width="47.14" height="0.31"/>
		<rect x="23.56" y="49.45" class="st13" width="47.14" height="0.31"/>
		<rect x="23.56" y="49.24" class="st14" width="47.14" height="0.31"/>
		<rect x="23.56" y="49.03" class="st15" width="47.14" height="0.31"/>
		<rect x="23.56" y="48.82" class="st16" width="47.14" height="0.31"/>
		<rect x="23.56" y="48.62" class="st17" width="47.14" height="0.31"/>
		<rect x="23.56" y="48.41" class="st18" width="47.14" height="0.31"/>
		<rect x="23.56" y="48.2" class="st19" width="47.14" height="0.31"/>
		<rect x="23.56" y="47.99" class="st20" width="47.14" height="0.31"/>
		<rect x="23.56" y="47.78" class="st21" width="47.14" height="0.31"/>
		<rect x="23.56" y="47.57" class="st22" width="47.14" height="0.31"/>
		<rect x="23.56" y="47.37" class="st23" width="47.14" height="0.31"/>
		<rect x="23.56" y="47.16" class="st24" width="47.14" height="0.31"/>
		<rect x="23.56" y="46.95" class="st25" width="47.14" height="0.31"/>
		<rect x="23.56" y="46.74" class="st26" width="47.14" height="0.31"/>
		<rect x="23.56" y="46.53" class="st27" width="47.14" height="0.31"/>
		<rect x="23.56" y="46.33" class="st28" width="47.14" height="0.31"/>
		<rect x="23.56" y="46.12" class="st29" width="47.14" height="0.31"/>
		<rect x="23.56" y="45.91" class="st30" width="47.14" height="0.31"/>
		<rect x="23.56" y="45.7" class="st31" width="47.14" height="0.31"/>
		<rect x="23.56" y="45.49" class="st32" width="47.14" height="0.31"/>
		<rect x="23.56" y="45.29" class="st33" width="47.14" height="0.31"/>
		<rect x="23.56" y="45.08" class="st34" width="47.14" height="0.31"/>
		<rect x="23.56" y="44.87" class="st35" width="47.14" height="0.31"/>
		<rect x="23.56" y="44.66" class="st36" width="47.14" height="0.31"/>
		<rect x="23.56" y="44.45" class="st37" width="47.14" height="0.31"/>
		<rect x="23.56" y="44.24" class="st38" width="47.14" height="0.31"/>
		<rect x="23.56" y="44.04" class="st39" width="47.14" height="0.31"/>
		<rect x="23.56" y="43.83" class="st40" width="47.14" height="0.31"/>
		<rect x="23.56" y="43.62" class="st41" width="47.14" height="0.31"/>
		<rect x="23.56" y="43.41" class="st42" width="47.14" height="0.31"/>
		<rect x="23.56" y="43.2" class="st43" width="47.14" height="0.31"/>
		<rect x="23.56" y="43" class="st44" width="47.14" height="0.31"/>
		<rect x="23.56" y="42.79" class="st45" width="47.14" height="0.31"/>
		<rect x="23.56" y="42.58" class="st46" width="47.14" height="0.31"/>
		<rect x="23.56" y="42.37" class="st47" width="47.14" height="0.31"/>
		<rect x="23.56" y="42.16" class="st48" width="47.14" height="0.31"/>
		<rect x="23.56" y="41.96" class="st49" width="47.14" height="0.31"/>
		<rect x="23.56" y="41.75" class="st50" width="47.14" height="0.31"/>
		<rect x="23.56" y="41.54" class="st51" width="47.14" height="0.31"/>
		<rect x="23.56" y="41.33" class="st52" width="47.14" height="0.31"/>
		<rect x="23.56" y="41.12" class="st53" width="47.14" height="0.31"/>
		<rect x="23.56" y="40.91" class="st54" width="47.14" height="0.31"/>
		<rect x="23.56" y="40.71" class="st55" width="47.14" height="0.31"/>
		<rect x="23.56" y="40.5" class="st56" width="47.14" height="0.31"/>
		<rect x="23.56" y="40.29" class="st57" width="47.14" height="0.31"/>
		<rect x="23.56" y="40.08" class="st58" width="47.14" height="0.31"/>
		<rect x="23.56" y="39.87" class="st59" width="47.14" height="0.31"/>
		<rect x="23.56" y="39.67" class="st60" width="47.14" height="0.31"/>
		<rect x="23.56" y="39.46" class="st61" width="47.14" height="0.31"/>
		<rect x="23.56" y="39.25" class="st62" width="47.14" height="0.31"/>
		<rect x="23.56" y="39.04" class="st63" width="47.14" height="0.31"/>
		<rect x="23.56" y="38.83" class="st64" width="47.14" height="0.31"/>
		<rect x="23.56" y="38.63" class="st65" width="47.14" height="0.31"/>
		<rect x="23.56" y="38.42" class="st66" width="47.14" height="0.31"/>
		<rect x="23.56" y="38.21" class="st67" width="47.14" height="0.31"/>
		<rect x="23.56" y="38" class="st68" width="47.14" height="0.31"/>
		<rect x="23.56" y="37.79" class="st69" width="47.14" height="0.31"/>
		<rect x="23.56" y="37.59" class="st70" width="47.14" height="0.31"/>
		<rect x="23.56" y="37.38" class="st70" width="47.14" height="0.31"/>
		<rect x="23.56" y="37.17" class="st70" width="47.14" height="0.31"/>
		<rect x="23.56" y="36.96" class="st70" width="47.14" height="0.31"/>
		<rect x="23.56" y="36.75" class="st70" width="47.14" height="0.31"/>
		<rect x="23.56" y="36.54" class="st70" width="47.14" height="0.31"/>
		<rect x="23.56" y="36.34" class="st70" width="47.14" height="0.31"/>
		<rect x="23.56" y="36.13" class="st70" width="47.14" height="0.31"/>
		<rect x="23.56" y="35.92" class="st70" width="47.14" height="0.31"/>
		<rect x="23.56" y="35.71" class="st70" width="47.14" height="0.31"/>
		<rect x="23.56" y="35.5" class="st70" width="47.14" height="0.31"/>
		<rect x="23.56" y="35.3" class="st70" width="47.14" height="0.31"/>
		<rect x="23.56" y="35.09" class="st70" width="47.14" height="0.31"/>
		<rect x="23.56" y="34.88" class="st70" width="47.14" height="0.31"/>
		<rect x="23.56" y="34.67" class="st70" width="47.14" height="0.31"/>
		<rect x="23.56" y="34.46" class="st70" width="47.14" height="0.31"/>
		<rect x="23.56" y="34.26" class="st70" width="47.14" height="0.31"/>
		<rect x="23.56" y="34.05" class="st70" width="47.14" height="0.31"/>
		<rect x="23.56" y="33.84" class="st70" width="47.14" height="0.31"/>
		<rect x="23.56" y="33.63" class="st70" width="47.14" height="0.31"/>
		<rect x="23.56" y="33.42" class="st70" width="47.14" height="0.31"/>
		<rect x="23.56" y="33.21" class="st70" width="47.14" height="0.31"/>
		<rect x="23.56" y="33.01" class="st70" width="47.14" height="0.31"/>
		<rect x="23.56" y="32.8" class="st70" width="47.14" height="0.31"/>
		<rect x="23.56" y="32.59" class="st70" width="47.14" height="0.31"/>
		<rect x="23.56" y="32.38" class="st70" width="47.14" height="0.31"/>
		<rect x="23.56" y="32.17" class="st70" width="47.14" height="0.31"/>
		<rect x="23.56" y="31.97" class="st70" width="47.14" height="0.31"/>
		<rect x="23.56" y="31.76" class="st70" width="47.14" height="0.31"/>
		<rect x="23.56" y="31.55" class="st70" width="47.14" height="0.31"/>
		<rect x="23.56" y="31.34" class="st70" width="47.14" height="0.31"/>
		<rect x="23.56" y="31.13" class="st70" width="47.14" height="0.31"/>
		<rect x="23.56" y="30.93" class="st70" width="47.14" height="0.31"/>
		<rect x="23.56" y="30.72" class="st70" width="47.14" height="0.31"/>
		<rect x="23.56" y="30.51" class="st70" width="47.14" height="0.31"/>
		<rect x="23.56" y="30.3" class="st70" width="47.14" height="0.31"/>
		<rect x="23.56" y="30.09" class="st70" width="47.14" height="0.31"/>
		<rect x="23.56" y="29.89" class="st70" width="47.14" height="0.31"/>
		<rect x="23.56" y="29.68" class="st70" width="47.14" height="0.31"/>
		<rect x="23.56" y="29.47" class="st70" width="47.14" height="0.31"/>
		<rect x="23.56" y="29.26" class="st70" width="47.14" height="0.31"/>
		<rect x="23.56" y="29.05" class="st70" width="47.14" height="0.31"/>
		<rect x="23.56" y="28.84" class="st70" width="47.14" height="0.31"/>
		<rect x="23.56" y="28.64" class="st70" width="47.14" height="0.31"/>
		<rect x="23.56" y="28.43" class="st70" width="47.14" height="0.31"/>
		<rect x="23.56" y="28.22" class="st70" width="47.14" height="0.31"/>
		<rect x="23.56" y="28.01" class="st70" width="47.14" height="0.31"/>
		<rect x="23.56" y="27.8" class="st70" width="47.14" height="0.31"/>
		<rect x="23.56" y="27.6" class="st70" width="47.14" height="0.31"/>
		<rect x="23.56" y="27.39" class="st70" width="47.14" height="0.31"/>
		<rect x="23.56" y="27.18" class="st70" width="47.14" height="0.31"/>
		<rect x="23.56" y="26.97" class="st70" width="47.14" height="0.31"/>
		<rect x="23.56" y="26.76" class="st70" width="47.14" height="0.31"/>
		<rect x="23.56" y="26.56" class="st70" width="47.14" height="0.31"/>
		<rect x="23.56" y="26.35" class="st70" width="47.14" height="0.31"/>
		<rect x="23.56" y="26.14" class="st70" width="47.14" height="0.31"/>
		<rect x="23.56" y="25.93" class="st70" width="47.14" height="0.31"/>
		<rect x="23.56" y="25.72" class="st70" width="47.14" height="0.31"/>
		<rect x="23.56" y="25.51" class="st70" width="47.14" height="0.31"/>
		<rect x="23.56" y="25.31" class="st70" width="47.14" height="0.31"/>
		<rect x="23.56" y="25.1" class="st70" width="47.14" height="0.31"/>
		<rect x="23.56" y="24.89" class="st70" width="47.14" height="0.31"/>
		<rect x="23.56" y="24.68" class="st70" width="47.14" height="0.31"/>
		<rect x="23.56" y="24.47" class="st70" width="47.14" height="0.31"/>
		<rect x="23.56" y="24.27" class="st70" width="47.14" height="0.31"/>
		<rect x="23.56" y="24.06" class="st70" width="47.14" height="0.31"/>
		<rect x="23.56" y="23.85" class="st70" width="47.14" height="0.31"/>
		<rect x="23.56" y="23.64" class="st70" width="47.14" height="0.31"/>
		<rect x="23.56" y="23.43" class="st70" width="47.14" height="0.31"/>
		<rect x="23.56" y="23.23" class="st70" width="47.14" height="0.31"/>
		<rect x="23.56" y="23.02" class="st70" width="47.14" height="0.31"/>
		<rect x="23.56" y="22.81" class="st70" width="47.14" height="0.31"/>
		<rect x="23.56" y="22.6" class="st70" width="47.14" height="0.31"/>
		<rect x="23.56" y="22.39" class="st70" width="47.14" height="0.31"/>
		<rect x="23.56" y="22.18" class="st70" width="47.14" height="0.31"/>
		<rect x="23.56" y="21.98" class="st70" width="47.14" height="0.31"/>
		<rect x="23.56" y="21.77" class="st70" width="47.14" height="0.31"/>
		<rect x="23.56" y="21.56" class="st70" width="47.14" height="0.31"/>
		<rect x="23.56" y="21.35" class="st70" width="47.14" height="0.31"/>
		<rect x="23.56" y="21.14" class="st70" width="47.14" height="0.31"/>
		<rect x="23.56" y="20.94" class="st70" width="47.14" height="0.31"/>
		<rect x="23.56" y="20.73" class="st70" width="47.14" height="0.31"/>
		<rect x="23.56" y="20.52" class="st70" width="47.14" height="0.31"/>
		<rect x="23.56" y="20.31" class="st70" width="47.14" height="0.31"/>
		<rect x="23.56" y="20.1" class="st70" width="47.14" height="0.31"/>
		<rect x="23.56" y="19.9" class="st70" width="47.14" height="0.31"/>
		<rect x="23.56" y="19.69" class="st70" width="47.14" height="0.31"/>
		<rect x="23.56" y="19.58" class="st70" width="47.14" height="0.21"/>
	</g>
</g>
</svg>
