<svg width="87" height="87" viewBox="0 0 87 87" fill="none" xmlns="http://www.w3.org/2000/svg">
<path d="M19.8747 87C8.91874 87 0 78.0813 0 67.1253V19.8747C0 8.91874 8.91874 0 19.8747 0H67.1253C78.0813 0 87 8.91874 87 19.8747V67.1253C87 78.0813 78.0813 87 67.1253 87H19.8747Z" fill="url(#paint0_linear_3_404)"/>
<path d="M67.1252 78.2034H19.8746C13.7536 78.2034 8.79663 73.2464 8.79663 67.1254V20.0438C8.79663 13.8382 13.8287 8.80615 20.0342 8.80615H67.1158C73.2369 8.80615 78.1938 13.7631 78.1938 19.8842V67.1348C78.2032 73.2464 73.2369 78.2034 67.1252 78.2034Z" fill="url(#paint1_linear_3_404)"/>
<path d="M65.1631 30.4271C67.4632 35.262 66.6089 41.2423 62.5814 45.2604L44.1993 63.6424C43.7675 64.0743 43.0728 64.0743 42.6409 63.6424L37.2897 58.2912L65.1631 30.4271Z" fill="#FEBE10"/>
<path d="M44.2088 26.8784L29.1878 41.8994L25.0476 46.0396L31.178 52.1701L59.0327 24.3248L58.9951 24.2872C54.1602 22.0059 48.2082 22.8696 44.2088 26.8784Z" fill="#EE2D74"/>
<path d="M31.178 52.1608L37.3085 58.2912L65.1725 30.4272C64.5529 29.1316 63.7079 27.9112 62.6377 26.8316C61.5674 25.7613 60.347 24.9164 59.042 24.2968L31.178 52.1608Z" fill="#F4774F"/>
<path d="M31.2061 39.8716L21.846 30.5116C19.5272 35.3559 20.3627 41.3361 24.3715 45.3449L25.0474 46.0208L31.2061 39.8716Z" fill="#7A5DA8"/>
<path d="M37.3647 33.7223L28.0047 24.3623C26.6997 24.9819 25.4793 25.8362 24.3997 26.9159C23.32 27.9955 22.4751 29.216 21.8461 30.5209L31.2061 39.8809L37.3647 33.7223Z" fill="#9258A4"/>
<path d="M43.514 27.5636L42.8381 26.8877C38.8293 22.8789 32.8584 22.0434 28.0048 24.3623L37.3648 33.7222L43.514 27.5636Z" fill="#B05BA3"/>
<defs>
<linearGradient id="paint0_linear_3_404" x1="60.0787" y1="83.3794" x2="28.7922" y2="8.13286" gradientUnits="userSpaceOnUse">
<stop stop-color="#EFF2F5"/>
<stop offset="0.4215" stop-color="#F7F9FA"/>
<stop offset="1" stop-color="white"/>
</linearGradient>
<linearGradient id="paint1_linear_3_404" x1="35.9075" y1="5.98041" x2="50.4767" y2="77.9966" gradientUnits="userSpaceOnUse">
<stop stop-color="#EFF2F5"/>
<stop offset="0.269" stop-color="#F3F6F8"/>
<stop offset="1" stop-color="white"/>
</linearGradient>
</defs>
</svg>
