<svg width="94" height="94" viewBox="0 0 94 94" fill="none" xmlns="http://www.w3.org/2000/svg">
<path d="M21.89 93.3C10.22 93.3 0.719971 83.8 0.719971 72.13V21.8C0.719971 10.13 10.22 0.630005 21.89 0.630005H72.22C83.89 0.630005 93.39 10.13 93.39 21.8V72.13C93.39 83.8 83.89 93.3 72.22 93.3H21.89Z" fill="url(#paint0_linear_101_6)"/>
<path d="M72.22 83.93H21.89C15.37 83.93 10.09 78.65 10.09 72.13V21.98C10.09 15.37 15.45 10.01 22.06 10.01H72.21C78.73 10.01 84.01 15.29 84.01 21.81V72.14C84.02 78.64 78.74 83.93 72.22 83.93Z" fill="url(#paint1_linear_101_6)"/>
<path d="M29.87 22.36C32.84 22.36 35.3 24.82 35.29 27.81C35.28 30.94 32.69 33.3 29.83 33.23C26.94 33.29 24.39 30.87 24.39 27.79C24.4 24.79 26.86 22.35 29.87 22.36Z" fill="#0784B3"/>
<path d="M33.03 67.56H26.66C25.83 67.56 25.16 66.89 25.16 66.06V38.88C25.16 38.05 25.83 37.38 26.66 37.38H33.03C33.86 37.38 34.53 38.05 34.53 38.88V66.06C34.53 66.89 33.86 67.56 33.03 67.56Z" fill="#0784B3"/>
<path d="M69.72 46.93C69.72 41.23 65.1 36.61 59.4 36.61H57.77C54.65 36.61 51.9 38.17 50.24 40.54C50.06 40.8 49.89 41.07 49.74 41.35C49.69 41.34 49.66 41.34 49.66 41.34V38C49.66 37.66 49.38 37.38 49.04 37.38H41.09C40.75 37.38 40.47 37.66 40.47 38V66.94C40.47 67.28 40.75 67.56 41.09 67.56H49.21C49.55 67.56 49.83 67.28 49.83 66.94V50.22C49.83 47.33 52.14 44.93 55.02 44.9C56.49 44.88 57.83 45.47 58.8 46.44C59.75 47.39 60.34 48.7 60.34 50.16V66.95C60.34 67.29 60.62 67.57 60.96 67.57H69.1C69.44 67.57 69.72 67.29 69.72 66.95V46.93Z" fill="#0784B3"/>
<defs>
<linearGradient id="paint0_linear_101_6" x1="64.7182" y1="89.4364" x2="31.3927" y2="9.2859" gradientUnits="userSpaceOnUse">
<stop stop-color="#EFF2F5"/>
<stop offset="0.4215" stop-color="#F7F9FA"/>
<stop offset="1" stop-color="white"/>
</linearGradient>
<linearGradient id="paint1_linear_101_6" x1="38.9718" y1="6.99301" x2="54.4906" y2="83.7026" gradientUnits="userSpaceOnUse">
<stop stop-color="#EFF2F5"/>
<stop offset="0.269" stop-color="#F3F6F8"/>
<stop offset="1" stop-color="white"/>
</linearGradient>
</defs>
</svg>
