<svg width="94" height="93" viewBox="0 0 94 93" fill="none" xmlns="http://www.w3.org/2000/svg">
<path d="M21.73 92.67C10.06 92.67 0.560059 83.17 0.560059 71.5V21.17C0.560059 9.49998 10.06 0 21.73 0H72.0601C83.7301 0 93.23 9.49998 93.23 21.17V71.5C93.23 83.17 83.7301 92.67 72.0601 92.67H21.73Z" fill="url(#paint0_linear_101_18)"/>
<path d="M72.0601 83.3H21.73C15.21 83.3 9.93005 78.02 9.93005 71.5V21.35C9.93005 14.74 15.2901 9.38 21.9001 9.38H72.05C78.57 9.38 83.85 14.66 83.85 21.18V71.5099C83.86 78.02 78.5701 83.3 72.0601 83.3Z" fill="#4165B0"/>
<path fill-rule="evenodd" clip-rule="evenodd" d="M25.02 46.34C25.02 34.31 34.83 24.53 46.89 24.53C58.95 24.53 68.76 34.31 68.76 46.34C68.76 48.04 68.62 49.4201 68.3 50.8101V50.83C68.3 50.83 68.14 51.4701 68.05 51.7501C67.51 53.4701 66.53 54.91 65.22 55.9C63.95 56.86 62.37 57.39 60.78 57.39C60.58 57.39 60.39 57.3801 60.19 57.3701C57.93 57.1901 55.94 56 54.73 54.11C52.63 56.21 49.86 57.3701 46.89 57.3701C40.79 57.3701 35.83 52.42 35.83 46.34C35.83 40.26 40.79 35.3101 46.89 35.3101C52.99 35.3101 57.95 40.26 57.95 46.34V49.9C57.96 51.98 59.36 52.82 60.55 52.92C61.74 53.01 63.32 52.3201 63.87 50.0701C64.14 48.8401 64.28 47.58 64.28 46.34C64.28 36.78 56.48 29.0001 46.89 29.0001C37.3 29.0001 29.5 36.78 29.5 46.34C29.5 55.9 37.3 63.6801 46.89 63.6801C50.23 63.6801 53.47 62.7301 56.28 60.9301L56.33 60.9L59.28 64.3201L59.22 64.36C55.58 66.84 51.32 68.15 46.9 68.15C34.83 68.15 25.02 58.36 25.02 46.34ZM46.89 52.9C50.52 52.9 53.47 49.96 53.47 46.34C53.47 42.72 50.52 39.78 46.89 39.78C43.26 39.78 40.31 42.72 40.31 46.34C40.31 49.96 43.27 52.9 46.89 52.9Z" fill="#F99E1C"/>
<defs>
<linearGradient id="paint0_linear_101_18" x1="64.5543" y1="88.8108" x2="31.2288" y2="8.66019" gradientUnits="userSpaceOnUse">
<stop stop-color="#EFF2F5"/>
<stop offset="0.4215" stop-color="#F7F9FA"/>
<stop offset="1" stop-color="white"/>
</linearGradient>
</defs>
</svg>
