<svg width="93" height="93" viewBox="0 0 93 93" fill="none" xmlns="http://www.w3.org/2000/svg">
<path d="M21.17 92.67C9.50001 92.67 0 83.17 0 71.5V21.17C0 9.5 9.50001 0 21.17 0H71.5C83.17 0 92.67 9.5 92.67 21.17V71.49C92.67 83.16 83.17 92.66 71.5 92.66H21.17V92.67Z" fill="url(#paint0_linear_101_5)"/>
<path d="M71.49 83.3H21.16C14.64 83.3 9.35999 78.02 9.35999 71.5V21.35C9.35999 14.74 14.72 9.38 21.33 9.38H71.48C78 9.38 83.28 14.66 83.28 21.18V71.51C83.29 78.01 78.01 83.3 71.49 83.3Z" fill="url(#paint1_linear_101_5)"/>
<path fill-rule="evenodd" clip-rule="evenodd" d="M46.2001 47.25C42.4301 47.23 38.8201 45.72 36.1501 43.05C33.4801 40.37 31.9801 36.75 31.9601 32.96C31.9701 29.15 33.4701 25.51 36.1301 22.8C38.7901 20.09 42.4101 18.54 46.1901 18.48C48.0801 18.48 49.9401 18.85 51.6901 19.58C53.4301 20.31 55.0101 21.38 56.3301 22.73C57.6501 24.08 58.7001 25.68 59.4001 27.44C60.1001 29.2 60.4501 31.08 60.4201 32.97C60.4401 34.85 60.0901 36.72 59.3901 38.47C58.6801 40.21 57.6401 41.8 56.3101 43.13C54.9801 44.46 53.4101 45.51 51.6701 46.22C49.9401 46.92 48.0801 47.27 46.2001 47.25ZM46.2001 27C45.4001 27 44.6201 27.16 43.8801 27.47C43.1401 27.78 42.4801 28.24 41.9301 28.81C41.3801 29.38 40.9401 30.06 40.6601 30.81C40.3701 31.56 40.2401 32.35 40.2701 33.15C40.2601 33.93 40.4101 34.7 40.7001 35.41C41.0001 36.13 41.4401 36.77 41.9901 37.31C42.5501 37.85 43.2101 38.27 43.9301 38.54C44.6501 38.81 45.4301 38.93 46.2001 38.9C46.9701 38.92 47.7301 38.78 48.4501 38.5C49.1601 38.22 49.8201 37.8 50.3701 37.26C50.9201 36.72 51.3601 36.08 51.6701 35.38C51.9701 34.67 52.1301 33.91 52.1401 33.14C52.1701 32.34 52.0301 31.55 51.7501 30.8C51.4701 30.05 51.0301 29.37 50.4801 28.8C49.9301 28.23 49.2601 27.77 48.5301 27.46C47.7901 27.16 47.0001 27 46.2001 27ZM51.9401 59.15L60.0401 67.09C60.4201 67.47 60.7201 67.92 60.9201 68.41C61.1201 68.9 61.2301 69.43 61.2301 69.97C61.2301 70.5 61.1301 71.03 60.9201 71.53C60.7201 72.02 60.4201 72.47 60.0401 72.85C59.6901 73.27 59.2501 73.61 58.7601 73.84C58.2601 74.07 57.7201 74.19 57.1801 74.19C56.6301 74.19 56.0901 74.07 55.6001 73.84C55.1001 73.61 54.6701 73.27 54.3201 72.85L46.2201 64.91L38.3101 72.85C37.9301 73.24 37.4601 73.55 36.9501 73.76C36.4401 73.96 35.8901 74.06 35.3401 74.04C34.2401 74 33.2001 73.58 32.3801 72.85C32.0001 72.47 31.7001 72.02 31.5001 71.53C31.3001 71.04 31.1901 70.51 31.1901 69.97C31.1901 69.44 31.2901 68.91 31.5001 68.41C31.7001 67.92 32.0001 67.47 32.3801 67.09L40.6801 59.15C37.7101 58.22 34.8601 56.95 32.1801 55.38C31.2601 54.78 30.6101 53.85 30.3501 52.78C30.0901 51.71 30.2501 50.58 30.7901 49.63C31.0901 49.15 31.4901 48.74 31.9501 48.41C32.4101 48.08 32.9401 47.86 33.5001 47.75C34.0501 47.64 34.6301 47.64 35.1801 47.76C35.7301 47.88 36.2601 48.11 36.7201 48.43C39.6101 50.18 42.9301 51.11 46.3101 51.11C49.6901 51.11 53.0001 50.18 55.9001 48.43C56.3601 48.1 56.8901 47.87 57.4401 47.76C57.9901 47.64 58.5601 47.64 59.1201 47.75C59.6701 47.86 60.2001 48.08 60.6701 48.41C61.1401 48.73 61.5301 49.15 61.8301 49.63C62.3901 50.56 62.5801 51.67 62.3601 52.74C62.1401 53.81 61.5301 54.75 60.6401 55.38C57.8801 56.96 54.9601 58.22 51.9401 59.15Z" fill="#F6891F"/>
<defs>
<linearGradient id="paint0_linear_101_5" x1="63.9905" y1="88.8066" x2="30.665" y2="8.6561" gradientUnits="userSpaceOnUse">
<stop stop-color="#EFF2F5"/>
<stop offset="0.4215" stop-color="#F7F9FA"/>
<stop offset="1" stop-color="white"/>
</linearGradient>
<linearGradient id="paint1_linear_101_5" x1="38.244" y1="6.3633" x2="53.7628" y2="83.0728" gradientUnits="userSpaceOnUse">
<stop stop-color="#EFF2F5"/>
<stop offset="0.269" stop-color="#F3F6F8"/>
<stop offset="1" stop-color="white"/>
</linearGradient>
</defs>
</svg>
