<svg width="24" height="24" viewBox="0 0 24 24" fill="none" xmlns="http://www.w3.org/2000/svg">
<g clip-path="url(#clip0_237_4653)">
<path d="M10.8 0C7.93566 0 5.18864 1.13785 3.16325 3.16325C1.13785 5.18864 0 7.93566 0 10.8C0 13.6643 1.13785 16.4114 3.16325 18.4368C5.18864 20.4621 7.93566 21.6 10.8 21.6C13.6643 21.6 16.4114 20.4621 18.4368 18.4368C20.4621 16.4114 21.6 13.6643 21.6 10.8C21.6 7.93566 20.4621 5.18864 18.4368 3.16325C16.4114 1.13785 13.6643 0 10.8 0V0ZM19.8 7.776C19.6374 8.30816 19.3671 8.80118 19.0058 9.22438C18.6445 9.64759 18.2001 9.99194 17.7 10.236C17.4336 9.2358 16.9413 8.31004 16.261 7.52991C15.5808 6.74978 14.7306 6.13608 13.776 5.736C13.9314 5.20356 14.2664 4.74136 14.724 4.428C14.208 4.092 13.524 3.924 13.116 4.512C12.48 5.34 13.116 6.444 13.368 6.912V7.08C12.7017 6.67587 12.1808 6.07088 11.88 5.352C10.7205 5.31476 9.57357 5.60149 8.568 6.18C8.46361 5.50248 8.5296 4.80963 8.76 4.164C9.19333 4.20536 9.63018 4.13942 10.032 3.972C10.4338 3.80458 10.7882 3.54082 11.064 3.204C11.616 2.58 10.908 1.788 10.356 1.308H10.788C12.4217 1.29698 14.0302 1.71048 15.456 2.508C16.2619 3.10362 16.9247 3.87165 17.3959 4.75604C17.8672 5.64044 18.1351 6.61889 18.18 7.62C18.468 7.62 19.02 6.96 19.272 6.516C19.4784 6.9228 19.6548 7.344 19.8 7.776ZM10.8 20.208C8.34 17.712 11.1 15.708 9.6 13.92C8.496 12.9 6.852 13.608 5.868 12.444C5.70189 11.5762 5.7737 10.6797 6.07581 9.84942C6.37792 9.01915 6.89906 8.2861 7.584 7.728C8.208 7.2 12.384 6.528 14.088 7.992C15.0847 8.85041 15.7858 10.0008 16.092 11.28C16.6427 11.3216 17.1935 11.2006 17.676 10.932C18.168 14.508 13.896 19.02 10.8 20.208ZM6.18 2.508C6.63862 2.33315 7.14242 2.31608 7.61182 2.45951C8.08121 2.60294 8.48944 2.89867 8.772 3.3C8.268 3.756 7.644 4.056 6.972 4.164C6.99682 3.81066 7.07364 3.46291 7.2 3.132L6.18 2.508Z" fill="black"/>
</g>
<defs>
<clipPath id="clip0_237_4653">
<rect width="24" height="24" fill="white"/>
</clipPath>
</defs>
</svg>
