<svg width="93" height="94" viewBox="0 0 93 94" fill="none" xmlns="http://www.w3.org/2000/svg">
<path d="M21.2167 93.2C9.54674 93.2 0.0467529 83.7 0.0467529 72.03V21.7C0.0467529 10.03 9.54674 0.530029 21.2167 0.530029H71.5468C83.2168 0.530029 92.7167 10.03 92.7167 21.7V72.03C92.7167 83.7 83.2168 93.2 71.5468 93.2H21.2167Z" fill="url(#paint0_linear_101_3)"/>
<path d="M71.5468 83.83H21.2167C14.6967 83.83 9.41675 78.55 9.41675 72.03V21.88C9.41675 15.27 14.7767 9.91003 21.3867 9.91003H71.5367C78.0567 9.91003 83.3367 15.19 83.3367 21.71V72.04C83.3467 78.54 78.0667 83.83 71.5468 83.83Z" fill="url(#paint1_linear_101_3)"/>
<path d="M49.5667 57.9101C46.5867 57.6801 45.3267 56.2001 42.9867 54.7701C41.6967 61.5201 40.1267 67.9901 35.4667 71.3801C34.0267 61.1701 37.5767 53.5101 39.2267 45.3801C36.4167 40.6501 39.5667 31.1201 45.4967 33.4701C52.7867 36.3501 39.1767 51.0601 48.3167 52.9001C57.8567 54.8201 61.7467 36.3501 55.8367 30.3401C47.2867 21.6701 30.9567 30.1401 32.9667 42.5601C33.4567 45.6001 36.5967 46.5201 34.2167 50.7101C28.7467 49.5001 27.1167 45.1801 27.3267 39.4301C27.6667 30.0101 35.7867 23.4201 43.9367 22.5101C54.2467 21.3601 63.9167 26.2901 65.2467 35.9801C66.7467 46.9201 60.5867 58.7601 49.5667 57.9101Z" fill="#EA1D26"/>
<defs>
<linearGradient id="paint0_linear_101_3" x1="64.0458" y1="89.3382" x2="30.7203" y2="9.18774" gradientUnits="userSpaceOnUse">
<stop stop-color="#EFF2F5"/>
<stop offset="0.4215" stop-color="#F7F9FA"/>
<stop offset="1" stop-color="white"/>
</linearGradient>
<linearGradient id="paint1_linear_101_3" x1="38.2993" y1="6.89483" x2="53.8181" y2="83.6044" gradientUnits="userSpaceOnUse">
<stop stop-color="#EFF2F5"/>
<stop offset="0.269" stop-color="#F3F6F8"/>
<stop offset="1" stop-color="white"/>
</linearGradient>
</defs>
</svg>
