<svg width="93" height="93" viewBox="0 0 93 93" fill="none" xmlns="http://www.w3.org/2000/svg">
<path d="M21.17 92.69C9.5 92.69 0 83.2 0 71.52V21.19C0 9.52 9.5 0.0200195 21.17 0.0200195H71.5C83.17 0.0200195 92.67 9.52 92.67 21.19V71.52C92.67 83.19 83.17 92.69 71.5 92.69H21.17Z" fill="url(#paint0_linear_101_15)"/>
<path d="M71.5 83.32H21.17C14.65 83.32 9.37 78.04 9.37 71.52V21.37C9.37 14.76 14.73 9.40002 21.34 9.40002H71.5C78.02 9.40002 83.3 14.68 83.3 21.2V71.53C83.3 78.04 78.02 83.32 71.5 83.32Z" fill="url(#paint1_linear_101_15)"/>
<path d="M22.49 65.42C22.49 52.54 22.49 39.9699 22.49 27.0299C25 27.0299 27.32 27.0299 29.63 27.0299C39.13 27.0299 48.62 26.9599 58.12 27.0599C65.85 27.1399 69.05 30.4699 69.09 38.1499C69.1 39.4899 69.1 40.83 69.09 42.17C69.06 48.72 67.6 50.8599 61.22 53.3399C64.11 57.3099 66.95 61.2099 70.19 65.6599C66.64 65.6599 63.68 65.74 60.72 65.61C59.95 65.58 59.2 64.9199 58.47 64.4999C58.29 64.3999 58.21 64.1499 58.08 63.9599C55.57 60.4299 53.06 56.8999 50.56 53.3699C44.56 53.3699 38.56 53.3699 32.26 53.3699C32.26 57.4099 32.26 61.2799 32.26 65.3999C28.9 65.4199 25.85 65.42 22.49 65.42ZM32.26 44.35C33.1 44.44 33.94 44.6 34.78 44.6C41.57 44.62 48.37 44.4899 55.15 44.6599C58.47 44.7499 59.43 43.2899 59.35 40.2599C59.26 36.2299 58.85 35.5299 55.18 35.4999C48.17 35.4299 41.15 35.46 34.14 35.49C33.53 35.49 32.92 35.7499 32.26 35.8899C32.26 38.7399 32.26 41.4 32.26 44.35Z" fill="black"/>
<defs>
<linearGradient id="paint0_linear_101_15" x1="63.9964" y1="88.8337" x2="30.6709" y2="8.68321" gradientUnits="userSpaceOnUse">
<stop stop-color="#EFF2F5"/>
<stop offset="0.4215" stop-color="#F7F9FA"/>
<stop offset="1" stop-color="white"/>
</linearGradient>
<linearGradient id="paint1_linear_101_15" x1="38.2499" y1="6.39042" x2="53.7687" y2="83.1" gradientUnits="userSpaceOnUse">
<stop stop-color="#EFF2F5"/>
<stop offset="0.269" stop-color="#F3F6F8"/>
<stop offset="1" stop-color="white"/>
</linearGradient>
</defs>
</svg>
