<svg width="94" height="93" viewBox="0 0 94 93" fill="none" xmlns="http://www.w3.org/2000/svg">
<path d="M21.73 92.67C10.06 92.67 0.560059 83.17 0.560059 71.5V21.17C0.560059 9.50001 10.06 0 21.73 0H72.0601C83.7301 0 93.23 9.50001 93.23 21.17V71.5C93.23 83.17 83.7301 92.67 72.0601 92.67H21.73Z" fill="url(#paint0_linear_101_14)"/>
<path d="M72.0601 83.3H21.73C15.21 83.3 9.93005 78.02 9.93005 71.5V21.35C9.93005 14.74 15.2901 9.38 21.9001 9.38H72.05C78.57 9.38 83.8501 14.66 83.8501 21.18V71.51C83.8601 78.01 78.5801 83.3 72.0601 83.3Z" fill="#F4EB25"/>
<path fill-rule="evenodd" clip-rule="evenodd" d="M71.79 58.79V58.78C71.78 58.77 71.77 58.77 71.74 58.74C71.74 58.74 71.74 58.74 71.73 58.74C71.12 58.36 70.5 58.3 70.12 58.16C70.11 58.16 70.1 58.16 70.1 58.15C67.46 57.32 65.19 55.52 63.48 53.33C62.53 52.1 61.74 50.79 61.22 49.37C61.22 49.36 61.22 49.36 61.22 49.35C61.01 48.74 61 48.07 61.3 47.66C61.3 47.66 61.31 47.66 61.31 47.65C61.79 46.97 62.66 46.54 63.59 46.2C63.6 46.2 63.6 46.2 63.6 46.2C64.64 45.84 65.76 45.43 66.68 44.61C66.69 44.61 66.69 44.6 66.7 44.6C66.84 44.47 67.01 44.3 67.14 44.03C67.16 43.97 67.2 43.9 67.21 43.82C67.28 43.57 67.28 43.27 67.15 43.01C67.15 43 67.15 43 67.15 43C66.88 42.46 66.43 42.17 66.08 41.97H66.07C65.5 41.63 64.82 41.61 64.23 41.81H64.22C63.59 42 63.06 42.23 62.59 42.29C62.58 42.29 62.57 42.29 62.55 42.3C61.87 42.42 61.21 42.44 60.69 42.25C60.68 42.18 60.68 42.03 60.66 41.84H60.67C60.62 40.72 60.73 39.56 60.74 38.36C60.74 38.36 60.74 38.36 60.74 38.35C60.8 36.53 60.87 34.66 60.6 32.77C60.6 32.76 60.6 32.75 60.6 32.75C60.01 29.56 57.96 26.82 55.37 25C53.49 23.67 51.25 22.93 48.97 22.72C48.19 22.65 47.43 22.63 46.67 22.63C43.6 22.65 40.41 23.46 37.93 25.41C36.06 26.87 34.59 28.81 33.67 30.97V30.98C32.78 33.2 32.86 35.57 32.98 37.76C33.05 39.3 33.23 40.79 33.09 42.22C33.08 42.27 33.08 42.29 33.07 42.31C32.38 42.44 31.62 42.39 30.88 42.25H30.87C30.36 42.17 29.81 41.96 29.19 41.78C29.18 41.78 29.17 41.78 29.15 41.77C28.55 41.64 27.96 41.81 27.52 42.14C27.51 42.14 27.5 42.14 27.5 42.15C27.49 42.16 27.48 42.16 27.48 42.17C27.11 42.4 26.6 42.81 26.58 43.51C26.57 43.56 26.58 43.59 26.58 43.64C26.59 43.64 26.58 43.65 26.59 43.65C26.66 44.06 26.92 44.36 27.15 44.56C27.38 44.76 27.59 44.89 27.72 44.99C27.73 44.99 27.74 45 27.76 45.01C28.88 45.76 30.12 46.08 31.2 46.5C31.95 46.83 32.59 47.33 32.74 47.97C32.93 48.78 32.58 49.71 32.13 50.61V50.62C30.92 53 29.12 55.08 26.9 56.61C25.73 57.4 24.43 58 23.06 58.36C23.05 58.36 23.02 58.37 23 58.38C22.72 58.49 22.05 58.54 21.63 59.17C21.61 59.22 21.58 59.26 21.56 59.32C21.42 59.72 21.58 60.15 21.78 60.39C21.97 60.61 22.18 60.75 22.36 60.85C22.37 60.85 22.38 60.86 22.4 60.86C23.54 61.52 24.8 61.8 25.95 62.1C25.96 62.1 25.96 62.11 25.96 62.11C26.79 62.29 27.56 62.39 28.18 62.66C28.2 62.71 28.27 62.92 28.41 63.27C28.62 63.9 28.71 64.64 28.95 65.42C29.02 65.63 29.21 65.81 29.43 65.85C29.96 65.97 30.24 65.79 30.28 65.78C30.3 65.78 30.33 65.78 30.35 65.78C32.26 65.44 34.19 65.15 35.95 65.58C37.79 66.07 39.4 67.34 41.21 68.43V68.44C42.41 69.19 43.8 69.92 45.41 69.98C45.41 69.98 45.41 69.98 45.42 69.98C46.63 70.05 47.81 69.97 48.98 69.9C48.99 69.9 48.99 69.9 49 69.9C49.99 69.81 50.95 69.47 51.8 68.94C51.81 68.93 51.82 68.92 51.84 68.92C53.74 67.83 55.42 66.54 57.28 65.72H57.29C57.89 65.51 58.64 65.52 59.47 65.46C59.48 65.46 59.49 65.46 59.49 65.46C61.03 65.41 62.56 65.49 64.09 65.69C64.14 65.7 64.2 65.7 64.24 65.69C64.45 65.67 64.66 65.53 64.77 65.4C64.89 65.27 64.91 65.15 64.93 65.07C64.98 64.92 65.01 64.85 64.94 64.98C64.96 64.93 64.99 64.9 65 64.85C65.28 63.93 65.43 63.1 65.89 62.59C66.09 62.39 66.44 62.3 66.84 62.3C66.86 62.3 66.9 62.3 66.92 62.3C68.25 62.15 69.44 61.67 70.57 61.27C70.58 61.26 70.61 61.26 70.62 61.26C71.04 61.07 71.67 60.86 72.1 60.27C72.1 60.27 72.1 60.27 72.1 60.26C72.46 59.78 72.29 59.09 71.79 58.79Z" fill="white" stroke="#232221" stroke-miterlimit="10"/>
<defs>
<linearGradient id="paint0_linear_101_14" x1="64.5563" y1="88.8082" x2="31.2308" y2="8.65771" gradientUnits="userSpaceOnUse">
<stop stop-color="#EFF2F5"/>
<stop offset="0.4215" stop-color="#F7F9FA"/>
<stop offset="1" stop-color="white"/>
</linearGradient>
</defs>
</svg>
