<svg width="93" height="93" viewBox="0 0 93 93" fill="none" xmlns="http://www.w3.org/2000/svg">
<path d="M21.17 92.7C9.5 92.7 0 83.2 0 71.52V21.19C0 9.52003 9.5 0.0200195 21.17 0.0200195H71.5C83.17 0.0200195 92.67 9.52003 92.67 21.19V71.52C92.67 83.19 83.17 92.69 71.5 92.69H21.17V92.7Z" fill="url(#paint0_linear_3_441)"/>
<path d="M71.5 83.33H21.17C14.65 83.33 9.37 78.05 9.37 71.53V21.38C9.37 14.77 14.73 9.41003 21.34 9.41003H71.5C78.02 9.41003 83.3 14.69 83.3 21.21V71.54C83.3 78.04 78.02 83.33 71.5 83.33Z" fill="url(#paint1_linear_3_441)"/>
<path d="M68.91 30.32C68.79 31.94 67.8699 37.6 66.9499 43.72L64.0599 61.85C64.0599 61.85 63.8299 64.51 61.8699 64.97C59.91 65.43 56.67 63.35 56.09 62.89C55.63 62.54 47.4299 57.35 44.4199 54.8C43.6099 54.11 42.69 52.72 44.54 51.1C48.7 47.29 53.6699 42.55 56.6699 39.55C58.0599 38.16 59.4399 34.93 53.6699 38.86L37.38 49.83C37.38 49.83 35.5299 50.99 32.0699 49.95C28.5999 48.91 24.5599 47.52 24.5599 47.52C24.5599 47.52 21.79 45.79 26.52 43.94L53.43 32.85C56.09 31.69 65.0999 28 65.0999 28C65.0999 28 69.25 26.39 68.91 30.32Z" fill="#38AEE1"/>
<defs>
<linearGradient id="paint0_linear_3_441" x1="63.9962" y1="88.8358" x2="30.6706" y2="8.68533" gradientUnits="userSpaceOnUse">
<stop stop-color="#EFF2F5"/>
<stop offset="0.4215" stop-color="#F7F9FA"/>
<stop offset="1" stop-color="white"/>
</linearGradient>
<linearGradient id="paint1_linear_3_441" x1="38.2497" y1="6.39253" x2="53.7685" y2="83.1021" gradientUnits="userSpaceOnUse">
<stop stop-color="#EFF2F5"/>
<stop offset="0.269" stop-color="#F3F6F8"/>
<stop offset="1" stop-color="white"/>
</linearGradient>
</defs>
</svg>
