<svg width="94" height="94" viewBox="0 0 94 94" fill="none" xmlns="http://www.w3.org/2000/svg">
<path d="M21.9167 93.59C10.2467 93.59 0.746704 84.09 0.746704 72.42V22.09C0.746704 10.42 10.2467 0.920044 21.9167 0.920044H72.2467C83.9167 0.920044 93.4167 10.42 93.4167 22.09V72.42C93.4167 84.09 83.9167 93.59 72.2467 93.59H21.9167Z" fill="url(#paint0_linear_101_13)"/>
<path d="M72.2467 84.2201H21.9167C15.3967 84.2201 10.1167 78.9401 10.1167 72.4201V22.2701C10.1167 15.66 15.4767 10.3 22.0867 10.3H72.2367C78.7567 10.3 84.0367 15.5801 84.0367 22.1001V72.4301C84.0467 78.9401 78.7667 84.2201 72.2467 84.2201Z" fill="url(#paint1_linear_101_13)"/>
<path fill-rule="evenodd" clip-rule="evenodd" d="M68.8268 35.92C62.7268 35.92 57.7768 30.97 57.7768 24.87H49.4868V56.95C49.4868 60.68 46.4668 63.7 42.7368 63.7C39.0068 63.7 35.9868 60.68 35.9868 56.95C35.9868 53.22 39.0068 50.2 42.7368 50.2C43.4368 50.2 44.2268 50.31 44.8668 50.5V42.06C44.1768 41.96 43.4668 41.91 42.7368 41.91C34.4268 41.91 27.6968 48.65 27.6968 56.95C27.6968 65.26 34.4368 71.99 42.7368 71.99C51.0468 71.99 57.7768 65.26 57.7768 56.95V39.97C60.7868 42.43 64.6368 43.9 68.8268 43.9V35.92Z" fill="#EE2556"/>
<path fill-rule="evenodd" clip-rule="evenodd" d="M66.4768 33.57C60.3768 33.57 55.4268 28.62 55.4268 22.52H47.1368V54.6C47.1368 58.33 44.1168 61.35 40.3868 61.35C36.6568 61.35 33.6368 58.33 33.6368 54.6C33.6368 50.87 36.6568 47.85 40.3868 47.85C41.0868 47.85 41.8768 47.96 42.5168 48.15V39.71C41.8268 39.61 41.1168 39.56 40.3868 39.56C32.0768 39.56 25.3468 46.29 25.3468 54.6C25.3468 62.91 32.0768 69.64 40.3868 69.64C48.6968 69.64 55.4268 62.91 55.4268 54.6V37.62C58.4368 40.08 62.2868 41.55 66.4768 41.55V33.57Z" fill="#65C8D1"/>
<path fill-rule="evenodd" clip-rule="evenodd" d="M66.4768 35.67C63.8068 35.09 61.4968 33.55 59.9268 31.42C57.7968 29.85 56.2568 27.54 55.6768 24.87H49.4868V56.95C49.4868 60.68 46.4668 63.7 42.7368 63.7C40.2668 63.7 38.1168 62.38 36.9368 60.4C34.9668 59.22 33.6368 57.06 33.6368 54.6C33.6368 50.87 36.6568 47.85 40.3868 47.85C41.0868 47.85 41.8768 47.96 42.5168 48.15V41.91C34.3068 42.03 27.6968 48.72 27.6968 56.95C27.6968 60.51 28.9368 63.77 30.9968 66.35C33.5668 68.41 36.8368 69.65 40.3968 69.65C48.7068 69.65 55.4368 62.92 55.4368 54.61V37.63C58.4468 40.09 62.2968 41.56 66.4868 41.56V35.67H66.4768Z" fill="#010101"/>
<defs>
<linearGradient id="paint0_linear_101_13" x1="64.742" y1="89.7315" x2="31.4164" y2="9.58104" gradientUnits="userSpaceOnUse">
<stop stop-color="#EFF2F5"/>
<stop offset="0.4215" stop-color="#F7F9FA"/>
<stop offset="1" stop-color="white"/>
</linearGradient>
<linearGradient id="paint1_linear_101_13" x1="38.9955" y1="7.28815" x2="54.5143" y2="83.9978" gradientUnits="userSpaceOnUse">
<stop stop-color="#EFF2F5"/>
<stop offset="0.269" stop-color="#F3F6F8"/>
<stop offset="1" stop-color="white"/>
</linearGradient>
</defs>
</svg>
