<svg width="93" height="93" viewBox="0 0 93 93" fill="none" xmlns="http://www.w3.org/2000/svg">
<path d="M21.17 92.67C9.5 92.67 0 83.17 0 71.5V21.17C0 9.50001 9.5 0 21.17 0H71.5C83.17 0 92.67 9.50001 92.67 21.17V71.5C92.67 83.17 83.17 92.67 71.5 92.67H21.17Z" fill="url(#paint0_linear_101_12)"/>
<path d="M71.5 83.3H21.17C14.65 83.3 9.37 78.02 9.37 71.5V21.35C9.37 14.74 14.73 9.38 21.34 9.38H71.49C78.01 9.38 83.29 14.66 83.29 21.18V71.51C83.3 78.02 78.02 83.3 71.5 83.3Z" fill="url(#paint1_linear_101_12)"/>
<path d="M38.31 35.24C38.57 36.6 38.77 37.91 39.08 39.2C39.32 40.22 39.87 41.1 40.53 41.92C40.84 42.31 41.11 42.39 41.56 42.15C45.15 40.29 47.63 37.53 48.52 33.52C49.3 29.97 49.06 26.45 48.02 22.98C47.96 22.79 47.91 22.6 47.95 22.36C48.45 22.83 48.95 23.29 49.44 23.77C53.08 27.32 56.36 31.17 58.99 35.54C61.44 39.6 63.18 43.94 64 48.63C64.61 52.12 64.49 55.57 63.43 58.95C62.23 62.78 59.88 65.71 56.35 67.68C53.87 69.06 51.19 69.74 48.4 70.07C46.64 70.28 44.88 70.39 43.1 70.27C39.03 69.99 35.46 68.55 32.43 65.8C30.09 63.67 28.76 61.02 28.4 57.9C28.09 55.18 28.52 52.52 29.37 49.93C30.73 45.77 32.94 42.07 35.59 38.61C36.47 37.47 37.4 36.37 38.31 35.24Z" fill="#F15E64"/>
<defs>
<linearGradient id="paint0_linear_101_12" x1="63.9978" y1="88.8133" x2="30.6723" y2="8.6628" gradientUnits="userSpaceOnUse">
<stop stop-color="#EFF2F5"/>
<stop offset="0.4215" stop-color="#F7F9FA"/>
<stop offset="1" stop-color="white"/>
</linearGradient>
<linearGradient id="paint1_linear_101_12" x1="38.2513" y1="6.37" x2="53.7701" y2="83.0795" gradientUnits="userSpaceOnUse">
<stop stop-color="#EFF2F5"/>
<stop offset="0.269" stop-color="#F3F6F8"/>
<stop offset="1" stop-color="white"/>
</linearGradient>
</defs>
</svg>
