<svg width="93" height="93" viewBox="0 0 93 93" fill="none" xmlns="http://www.w3.org/2000/svg">
<path d="M21.17 92.69C9.5 92.69 0 83.19 0 71.5201V21.19C0 9.52003 9.5 0.0200195 21.17 0.0200195H71.5C83.17 0.0200195 92.67 9.52003 92.67 21.19V71.5201C92.67 83.19 83.17 92.69 71.5 92.69H21.17Z" fill="url(#paint0_linear_101_11)"/>
<path d="M71.5 83.32H21.17C14.65 83.32 9.37 78.04 9.37 71.5201V21.37C9.37 14.76 14.73 9.40002 21.34 9.40002H71.49C78.01 9.40002 83.29 14.68 83.29 21.2V71.5301C83.3 78.0401 78.02 83.32 71.5 83.32Z" fill="url(#paint1_linear_101_11)"/>
<path d="M33.3401 54.9099H40.3501V61.71L53.5501 55.52L59.7301 53.46L66.9501 44.39V21.72L34.3701 21.92L28.8101 31.82L30.6601 55.32L33.3401 54.9099Z" fill="white"/>
<path d="M33.1501 20.4L24.0701 29.48V63.1501H35.1801V72.3L44.4001 63.08H51.9801L68.6001 46.4601V20.4H33.1501ZM64.7401 44.64L57.4501 51.93H49.9901L43.5001 58.42V51.88H35.1701V24.19H64.7301V44.64H64.7401Z" fill="#65469C"/>
<path d="M48.9301 30.48H45.3501V41.81H48.9301V30.48Z" fill="#65469C"/>
<path d="M59.1901 30.48H55.6101V41.81H59.1901V30.48Z" fill="#65469C"/>
<defs>
<linearGradient id="paint0_linear_101_11" x1="63.9951" y1="88.8304" x2="30.6695" y2="8.67992" gradientUnits="userSpaceOnUse">
<stop stop-color="#EFF2F5"/>
<stop offset="0.4215" stop-color="#F7F9FA"/>
<stop offset="1" stop-color="white"/>
</linearGradient>
<linearGradient id="paint1_linear_101_11" x1="38.2486" y1="6.38712" x2="53.7674" y2="83.0967" gradientUnits="userSpaceOnUse">
<stop stop-color="#EFF2F5"/>
<stop offset="0.269" stop-color="#F3F6F8"/>
<stop offset="1" stop-color="white"/>
</linearGradient>
</defs>
</svg>
