<svg width="94" height="93" viewBox="0 0 94 93" fill="none" xmlns="http://www.w3.org/2000/svg">
<path d="M21.5301 93C9.86012 93 0.360107 83.5 0.360107 71.83V21.5C0.360107 9.82995 9.86012 0.329956 21.5301 0.329956H71.8601C83.5301 0.329956 93.0301 9.82995 93.0301 21.5V71.83C93.0301 83.5 83.5301 93 71.8601 93H21.5301Z" fill="url(#paint0_linear_3_423)"/>
<path d="M71.8601 83.63H21.5301C15.0101 83.63 9.7301 78.35 9.7301 71.83V21.68C9.7301 15.07 15.0901 9.70996 21.7001 9.70996H71.8501C78.3701 9.70996 83.6501 14.99 83.6501 21.51V71.84C83.6601 78.35 78.3701 83.63 71.8601 83.63Z" fill="url(#paint1_linear_3_423)"/>
<path d="M22.99 64.02C27.58 66.93 33.03 68.62 38.87 68.62C55.28 68.62 68.58 55.32 68.58 38.91C68.58 38.5 68.57 38.09 68.56 37.69C69.15 37.22 72.82 34.28 73.72 32.39C73.72 32.39 70.74 33.63 67.82 33.92C67.81 33.92 67.81 33.92 67.8 33.92C67.8 33.92 67.81 33.92 67.82 33.91C68.09 33.73 71.85 31.17 72.36 28.12C72.36 28.12 70.25 29.25 67.3 30.23C66.81 30.39 66.3 30.55 65.77 30.7C63.87 28.67 61.16 27.4 58.16 27.4C52.4 27.4 47.73 32.07 47.73 37.82C47.73 38.63 47.82 39.42 48 40.18C47.2 40.15 34.94 39.46 26.6 29.36C26.6 29.36 21.62 36.16 29.57 43.16C29.57 43.16 27.15 43.06 25.07 41.82C25.07 41.82 24.3 50.06 33.31 52.17C33.31 52.17 31.54 52.84 28.71 52.36C28.71 52.36 30.29 59.02 38.29 59.64C38.3 59.65 31.97 65.36 22.99 64.02Z" fill="#36A9E0"/>
<defs>
<linearGradient id="paint0_linear_3_423" x1="64.3536" y1="89.1393" x2="31.0281" y2="8.98875" gradientUnits="userSpaceOnUse">
<stop stop-color="#EFF2F5"/>
<stop offset="0.4215" stop-color="#F7F9FA"/>
<stop offset="1" stop-color="white"/>
</linearGradient>
<linearGradient id="paint1_linear_3_423" x1="38.6071" y1="6.69586" x2="54.1259" y2="83.4055" gradientUnits="userSpaceOnUse">
<stop stop-color="#EFF2F5"/>
<stop offset="0.269" stop-color="#F3F6F8"/>
<stop offset="1" stop-color="white"/>
</linearGradient>
</defs>
</svg>
