<svg width="93" height="94" viewBox="0 0 93 94" fill="none" xmlns="http://www.w3.org/2000/svg">
<path d="M21.2168 93.2C9.54677 93.2 0.0467529 83.7 0.0467529 72.03V21.7C0.0467529 10.03 9.54677 0.530029 21.2168 0.530029H71.5468C83.2168 0.530029 92.7168 10.03 92.7168 21.7V72.03C92.7168 83.7 83.2168 93.2 71.5468 93.2H21.2168Z" fill="url(#paint0_linear_101_9)"/>
<path d="M71.5468 83.83H21.2168C14.6968 83.83 9.41675 78.55 9.41675 72.03V21.88C9.41675 15.27 14.7767 9.91003 21.3867 9.91003H71.5368C78.0568 9.91003 83.3368 15.19 83.3368 21.71V72.04C83.3468 78.55 78.0667 83.83 71.5468 83.83Z" fill="url(#paint1_linear_101_9)"/>
<path d="M69.6568 35.39L69.6368 35.33C68.4468 30.52 63.0768 25.35 58.1468 24.28L58.0868 24.27C50.1168 22.75 42.0268 22.75 34.0568 24.27L33.9968 24.28C29.0668 25.35 23.6968 30.52 22.5068 35.33L22.4968 35.39C21.0268 42.11 21.0268 48.93 22.4968 55.65L22.5068 55.71C23.6468 60.32 28.6168 65.25 33.3568 66.6V71.97C33.3568 73.91 35.7268 74.87 37.0768 73.47L42.5168 67.81C43.6968 67.88 44.8768 67.91 46.0568 67.91C50.0668 67.91 54.0868 67.53 58.0768 66.77L58.1368 66.76C63.0668 65.69 68.4368 60.52 69.6268 55.71L69.6468 55.65C71.1268 48.93 71.1268 42.11 69.6568 35.39ZM65.3468 54.67C64.5568 57.81 60.4768 61.71 57.2368 62.44C52.9968 63.25 48.7268 63.59 44.4568 63.47C44.3768 63.47 44.2868 63.5 44.2268 63.56C43.6168 64.18 40.2568 67.64 40.2568 67.64L36.0268 71.98C35.7168 72.3 35.1768 72.08 35.1768 71.64V62.74C35.1768 62.59 35.0668 62.47 34.9268 62.44C31.6868 61.72 27.6168 57.81 26.8168 54.67C25.4868 48.59 25.4868 42.43 26.8168 36.36C27.6168 33.22 31.6868 29.32 34.9268 28.59C42.3268 27.18 49.8368 27.18 57.2368 28.59C60.4768 29.31 64.5468 33.22 65.3468 36.36C66.6768 42.44 66.6768 48.6 65.3468 54.67Z" fill="#85499C"/>
<path d="M53.1267 58.78C52.6267 58.63 52.1567 58.53 51.7167 58.34C47.1467 56.45 42.9467 54 39.6167 50.26C37.7267 48.13 36.2467 45.72 34.9867 43.18C34.3967 41.97 33.8967 40.72 33.3867 39.47C32.9267 38.33 33.6067 37.16 34.3267 36.3C35.0067 35.5 35.8767 34.88 36.8167 34.43C37.5567 34.08 38.2767 34.28 38.8167 34.9C39.9767 36.25 41.0467 37.67 41.9067 39.23C42.4367 40.19 42.2967 41.37 41.3267 42.02C41.0967 42.18 40.8767 42.37 40.6567 42.55C40.4667 42.71 40.2867 42.87 40.1567 43.08C39.9167 43.47 39.9067 43.93 40.0567 44.35C41.2467 47.62 43.2467 50.16 46.5367 51.52C47.0667 51.74 47.5867 51.99 48.1967 51.92C49.2167 51.8 49.5367 50.69 50.2467 50.11C50.9367 49.54 51.8267 49.53 52.5767 50.01C53.3267 50.48 54.0567 50.99 54.7767 51.51C55.4867 52.01 56.1867 52.51 56.8467 53.08C57.4767 53.63 57.6867 54.36 57.3367 55.11C56.6867 56.49 55.7467 57.63 54.3867 58.36C54.0167 58.58 53.5667 58.65 53.1267 58.78C52.6367 58.63 53.5667 58.65 53.1267 58.78Z" fill="#85499C"/>
<path d="M46.0968 32.86C52.0668 33.03 56.9768 36.99 58.0268 42.9C58.2068 43.91 58.2668 44.93 58.3468 45.96C58.3768 46.39 58.1367 46.8 57.6767 46.8C57.1967 46.81 56.9867 46.41 56.9567 45.98C56.8967 45.13 56.8567 44.28 56.7367 43.43C56.1167 38.98 52.5667 35.3 48.1467 34.51C47.4767 34.39 46.7968 34.36 46.1268 34.29C45.6968 34.25 45.1367 34.22 45.0467 33.69C44.9667 33.25 45.3467 32.89 45.7667 32.87C45.8667 32.86 45.9868 32.86 46.0968 32.86C52.0668 33.03 45.9868 32.86 46.0968 32.86Z" fill="#85499C"/>
<path d="M55.1768 44.6301C55.1668 44.7001 55.1568 44.8801 55.1168 45.0501C54.9568 45.6501 54.0468 45.7201 53.8368 45.1201C53.7768 44.9401 53.7668 44.74 53.7668 44.54C53.7668 43.27 53.4868 42.0101 52.8568 40.9101C52.1968 39.7801 51.1968 38.8301 50.0268 38.2501C49.3168 37.9001 48.5468 37.6901 47.7668 37.5601C47.4268 37.5001 47.0868 37.47 46.7368 37.42C46.3268 37.36 46.0968 37.1001 46.1168 36.6901C46.1368 36.3101 46.4168 36.0301 46.8368 36.0601C48.2068 36.1401 49.5268 36.4301 50.7468 37.0801C53.2268 38.3901 54.6368 40.46 55.0568 43.23C55.0768 43.36 55.1068 43.4801 55.1168 43.6101C55.1368 43.9101 55.1468 44.2201 55.1768 44.6301C55.1668 44.7001 55.1468 44.2201 55.1768 44.6301Z" fill="#85499C"/>
<path d="M51.4568 44.48C50.9568 44.49 50.6868 44.21 50.6368 43.75C50.5968 43.43 50.5768 43.11 50.4968 42.8C50.3468 42.19 50.0168 41.62 49.5068 41.25C49.2668 41.07 48.9868 40.94 48.6968 40.86C48.3268 40.75 47.9468 40.78 47.5868 40.69C47.1868 40.59 46.9668 40.27 47.0368 39.9C47.0968 39.56 47.4268 39.3001 47.7968 39.3201C50.1168 39.4901 51.7668 40.68 52.0068 43.41C52.0268 43.6 52.0468 43.81 51.9968 43.99C51.9168 44.31 51.6868 44.47 51.4568 44.48C50.9568 44.49 51.6868 44.47 51.4568 44.48Z" fill="#85499C"/>
<defs>
<linearGradient id="paint0_linear_101_9" x1="64.0433" y1="89.3429" x2="30.7178" y2="9.19232" gradientUnits="userSpaceOnUse">
<stop stop-color="#EFF2F5"/>
<stop offset="0.4215" stop-color="#F7F9FA"/>
<stop offset="1" stop-color="white"/>
</linearGradient>
<linearGradient id="paint1_linear_101_9" x1="38.2969" y1="6.89953" x2="53.8156" y2="83.6091" gradientUnits="userSpaceOnUse">
<stop stop-color="#EFF2F5"/>
<stop offset="0.269" stop-color="#F3F6F8"/>
<stop offset="1" stop-color="white"/>
</linearGradient>
</defs>
</svg>
