<svg width="93" height="93" viewBox="0 0 93 93" fill="none" xmlns="http://www.w3.org/2000/svg">
<path d="M21.17 92.67C9.49998 92.67 0 83.17 0 71.5V21.17C0 9.5 9.49998 0 21.17 0H71.5C83.17 0 92.67 9.5 92.67 21.17V71.5C92.67 83.17 83.17 92.67 71.5 92.67H21.17Z" fill="url(#paint0_linear_3_402)"/>
<path d="M71.5 83.3H21.17C14.65 83.3 9.37 78.02 9.37 71.5V21.35C9.37 14.74 14.73 9.38 21.34 9.38H71.49C78.01 9.38 83.29 14.66 83.29 21.18V71.5C83.3 78.02 78.02 83.3 71.5 83.3Z" fill="url(#paint1_linear_3_402)"/>
<path fill-rule="evenodd" clip-rule="evenodd" d="M45.8201 60.08H48.7201C48.7201 60.08 49.6001 59.98 50.0401 59.5C50.4501 59.06 50.4401 58.22 50.4401 58.22C50.4401 58.22 50.3801 54.32 52.1901 53.75C53.9701 53.18 56.2601 57.51 58.6901 59.18C60.5301 60.44 61.9201 60.17 61.9201 60.17L68.4101 60.08C68.4101 60.08 71.8001 59.87 70.1901 57.2C70.0601 56.98 69.2501 55.23 65.3701 51.62C61.3001 47.85 61.8501 48.45 66.7501 41.92C69.7401 37.94 70.9301 35.51 70.5601 34.47C70.2001 33.48 68.0101 33.74 68.0101 33.74L60.7001 33.79C60.7001 33.79 60.1601 33.72 59.7601 33.95C59.3701 34.18 59.1201 34.74 59.1201 34.74C59.1201 34.74 57.9601 37.82 56.4201 40.43C53.1701 45.96 51.8701 46.25 51.3301 45.91C50.0901 45.11 50.4001 42.7 50.4001 40.98C50.4001 35.63 51.2101 33.39 48.8201 32.82C48.0301 32.63 47.4401 32.5 45.4101 32.48C42.8001 32.45 40.6001 32.49 39.3501 33.1C38.5201 33.51 37.8801 34.41 38.2701 34.47C38.7501 34.53 39.8501 34.77 40.4301 35.56C41.1801 36.58 41.1501 38.86 41.1501 38.86C41.1501 38.86 41.5801 45.16 40.1401 45.95C39.1501 46.49 37.8101 45.39 34.9001 40.38C33.4201 37.81 32.2901 34.98 32.2901 34.98C32.2901 34.98 32.0701 34.45 31.6901 34.17C31.2201 33.83 30.5701 33.72 30.5701 33.72L23.6301 33.76C23.6301 33.76 22.5901 33.79 22.2001 34.24C21.8601 34.64 22.1701 35.48 22.1701 35.48C22.1701 35.48 27.6001 48.2 33.7601 54.6C39.4101 60.46 45.8201 60.08 45.8201 60.08Z" fill="#2F78A4"/>
<defs>
<linearGradient id="paint0_linear_3_402" x1="63.9972" y1="88.8105" x2="30.6717" y2="8.66" gradientUnits="userSpaceOnUse">
<stop stop-color="#EFF2F5"/>
<stop offset="0.4215" stop-color="#F7F9FA"/>
<stop offset="1" stop-color="white"/>
</linearGradient>
<linearGradient id="paint1_linear_3_402" x1="38.2507" y1="6.3672" x2="53.7695" y2="83.0768" gradientUnits="userSpaceOnUse">
<stop stop-color="#EFF2F5"/>
<stop offset="0.269" stop-color="#F3F6F8"/>
<stop offset="1" stop-color="white"/>
</linearGradient>
</defs>
</svg>
