<svg width="93" height="93" viewBox="0 0 93 93" fill="none" xmlns="http://www.w3.org/2000/svg">
<path d="M21.17 92.67C9.5 92.67 0 83.17 0 71.5V21.17C0 9.50001 9.5 0 21.17 0H71.5C83.17 0 92.67 9.50001 92.67 21.17V71.5C92.67 83.17 83.17 92.67 71.5 92.67H21.17Z" fill="url(#paint0_linear_101_8)"/>
<path d="M71.5 83.3H21.17C14.65 83.3 9.37 78.02 9.37 71.5V21.35C9.37 14.74 14.73 9.38 21.34 9.38H71.49C78.01 9.38 83.29 14.66 83.29 21.18V71.51C83.3 78.02 78.01 83.3 71.5 83.3Z" fill="#43B649"/>
<path d="M43.97 43.62C47.46 40.24 51.75 38.74 56.69 38.48C56.41 35.48 55.35 32.94 53.62 30.68C48.83 24.42 39.97 21.8 32.09 24.37C26.32 26.26 22.07 29.87 20.34 35.84C18.47 42.29 20.97 48.55 26.9 52.74C27.82 53.39 27.96 53.95 27.66 54.95C27.25 56.31 27.02 57.73 26.66 59.35C28.61 58.13 30.26 57.04 31.97 56.07C32.49 55.78 33.21 55.71 33.82 55.76C35.59 55.91 37.35 56.17 39.28 56.41C38.84 51.23 40.45 47.04 43.97 43.62ZM45.82 34.2C47.06 34.18 48.07 35.15 48.08 36.38C48.09 37.63 47.1401 38.6 45.8801 38.62C44.6301 38.64 43.62 37.67 43.59 36.45C43.58 35.26 44.6 34.22 45.82 34.2ZM31.64 38.6C30.39 38.57 29.44 37.57 29.48 36.33C29.52 35.11 30.54 34.16 31.78 34.19C32.99 34.23 34.02 35.29 33.97 36.47C33.92 37.68 32.88 38.63 31.64 38.6ZM70.04 46.27C65.1 39.9 54.83 38.37 47.82 42.96C39.94 48.12 38.97 57.78 45.78 64.09C49.36 67.4 53.71 68.75 58.55 68.26C60.14 68.1 61.74 67.22 63.26 67.38C64.79 67.54 66.22 68.58 67.79 69.28C67.69 68.86 67.66 68.45 67.48 68.12C66.5 66.34 67.05 65.23 68.57 63.88C73.84 59.2 74.35 51.83 70.04 46.27ZM49.9901 52.04C49.0001 52.04 48.18 51.25 48.14 50.27C48.1 49.24 48.97 48.36 50 48.36C51.04 48.36 51.88 49.24 51.84 50.28C51.8 51.26 50.9801 52.04 49.9901 52.04ZM61.44 52.03C60.41 52.03 59.6 51.17 59.64 50.13C59.68 49.15 60.5 48.36 61.47 48.37C62.5 48.38 63.3101 49.24 63.2701 50.29C63.23 51.27 62.44 52.03 61.44 52.03Z" fill="white"/>
<defs>
<linearGradient id="paint0_linear_101_8" x1="63.9925" y1="88.8115" x2="30.6669" y2="8.661" gradientUnits="userSpaceOnUse">
<stop stop-color="#EFF2F5"/>
<stop offset="0.4215" stop-color="#F7F9FA"/>
<stop offset="1" stop-color="white"/>
</linearGradient>
</defs>
</svg>
