<svg width="94" height="93" viewBox="0 0 94 93" fill="none" xmlns="http://www.w3.org/2000/svg">
<path d="M21.7568 92.68C10.0868 92.68 0.586792 83.18 0.586792 71.51V21.18C0.586792 9.51 10.0868 0.0100098 21.7568 0.0100098H72.0868C83.7568 0.0100098 93.2568 9.51 93.2568 21.18V71.51C93.2568 83.18 83.7568 92.68 72.0868 92.68H21.7568Z" fill="url(#paint0_linear_101_2)"/>
<path d="M72.0868 83.31H21.7568C15.2368 83.31 9.95679 78.03 9.95679 71.51V21.36C9.95679 14.75 15.3168 9.39001 21.9268 9.39001H72.0768C78.5968 9.39001 83.8768 14.67 83.8768 21.19V71.52C83.8868 78.03 78.6068 83.31 72.0868 83.31Z" fill="url(#paint1_linear_101_2)"/>
<path d="M24.3068 70.16L27.6068 58.42C25.4768 54.81 24.3668 50.7 24.3668 46.48C24.3668 33.48 34.9368 22.91 47.9368 22.91C60.9268 22.91 71.5067 33.48 71.5067 46.48C71.5067 59.47 60.9368 70.05 47.9368 70.05C43.8868 70.05 39.9267 69.01 36.4167 67.05L24.3068 70.16ZM37.0367 62.76L37.7567 63.2C40.8167 65.07 44.3368 66.05 47.9368 66.05C58.7268 66.05 67.5067 57.27 67.5067 46.48C67.5067 35.69 58.7268 26.91 47.9368 26.91C37.1468 26.91 28.3668 35.69 28.3668 46.48C28.3668 50.24 29.4368 53.89 31.4568 57.04L31.9467 57.8L30.0468 64.56L37.0367 62.76Z" fill="#4FB848"/>
<path d="M41.3168 35.5201L39.7868 35.4401C39.3068 35.4101 38.8368 35.5701 38.4768 35.8901C37.7368 36.5301 36.5468 37.7801 36.1868 39.4001C35.6468 41.8201 36.4868 44.7801 38.6568 47.7401C40.8268 50.7001 44.8768 55.4401 52.0268 57.4601C54.3368 58.1101 56.1468 57.6701 57.5468 56.7801C58.6568 56.0701 59.4168 54.9301 59.6968 53.6501L59.9368 52.5101C60.0168 52.1501 59.8268 51.7801 59.4968 51.6201L54.3268 49.2401C53.9868 49.0901 53.5968 49.1801 53.3668 49.4801L51.3368 52.1101C51.1868 52.3101 50.9168 52.3901 50.6868 52.3001C49.2968 51.8101 44.6468 49.8601 42.0868 44.9401C41.9768 44.7301 42.0068 44.4701 42.1568 44.2901L44.0968 42.0501C44.2968 41.8201 44.3468 41.5001 44.2268 41.2201L41.9968 36.0101C41.8868 35.7201 41.6168 35.5301 41.3168 35.5201Z" fill="#4FB848"/>
<defs>
<linearGradient id="paint0_linear_101_2" x1="64.5837" y1="88.8244" x2="31.2581" y2="8.67391" gradientUnits="userSpaceOnUse">
<stop stop-color="#EFF2F5"/>
<stop offset="0.4215" stop-color="#F7F9FA"/>
<stop offset="1" stop-color="white"/>
</linearGradient>
<linearGradient id="paint1_linear_101_2" x1="38.8372" y1="6.38101" x2="54.356" y2="83.0906" gradientUnits="userSpaceOnUse">
<stop stop-color="#EFF2F5"/>
<stop offset="0.269" stop-color="#F3F6F8"/>
<stop offset="1" stop-color="white"/>
</linearGradient>
</defs>
</svg>
