<svg width="94" height="93" viewBox="0 0 94 93" fill="none" xmlns="http://www.w3.org/2000/svg">
<path d="M21.7568 92.67C10.0868 92.67 0.586792 83.17 0.586792 71.5V21.17C0.586792 9.5 10.0868 0 21.7568 0H72.0868C83.7568 0 93.2568 9.5 93.2568 21.17V71.5C93.2568 83.17 83.7568 92.67 72.0868 92.67H21.7568Z" fill="url(#paint0_linear_3_401)"/>
<path d="M72.0868 83.3H21.7568C15.2368 83.3 9.95679 78.02 9.95679 71.5V21.35C9.95679 14.74 15.3168 9.38 21.9268 9.38H72.0768C78.5968 9.38 83.8768 14.66 83.8768 21.18V71.51C83.8868 78.02 78.6068 83.3 72.0868 83.3Z" fill="url(#paint1_linear_3_401)"/>
<path d="M62.0067 29.51H33.3967C27.7867 29.51 23.2367 34.06 23.2367 39.67V53.97C23.2367 59.58 27.7867 64.13 33.3967 64.13H62.0067C67.6167 64.13 72.1667 59.58 72.1667 53.97V39.67C72.1667 34.06 67.6167 29.51 62.0067 29.51ZM55.1367 47.52L41.7567 53.9C41.3967 54.07 40.9867 53.81 40.9867 53.42V40.25C40.9867 39.85 41.4067 39.59 41.7667 39.77L55.1467 46.55C55.5367 46.76 55.5367 47.33 55.1367 47.52Z" fill="#EE2924"/>
<defs>
<linearGradient id="paint0_linear_3_401" x1="64.5837" y1="88.8111" x2="31.2581" y2="8.66061" gradientUnits="userSpaceOnUse">
<stop stop-color="#EFF2F5"/>
<stop offset="0.4215" stop-color="#F7F9FA"/>
<stop offset="1" stop-color="white"/>
</linearGradient>
<linearGradient id="paint1_linear_3_401" x1="38.8372" y1="6.36781" x2="54.356" y2="83.0774" gradientUnits="userSpaceOnUse">
<stop stop-color="#EFF2F5"/>
<stop offset="0.269" stop-color="#F3F6F8"/>
<stop offset="1" stop-color="white"/>
</linearGradient>
</defs>
</svg>
